<svg width="145" height="142" viewBox="0 0 145 142" fill="none" xmlns="http://www.w3.org/2000/svg">
<circle cx="98.2742" cy="24.6034" r="24.6034" fill="#D9F5FF"/>
<ellipse cx="53.3635" cy="69.9048" rx="53.112" ry="51.1593" fill="#D9F5FF"/>
<g clip-path="url(#clip0_42_862)">
<path d="M128.15 37.863C119.565 37.863 112.634 30.9312 112.634 22.3464C112.634 20.96 112.847 19.5204 113.22 18.1873H74.882C73.389 18.1873 72.1626 19.4137 72.1626 20.9067V107.181C72.1626 108.674 73.389 109.9 74.882 109.9H133.802C135.295 109.9 136.522 108.674 136.522 107.181V35.4102C134.016 37.0098 131.136 37.863 128.15 37.863Z" fill="#EDF4FC"/>
<path d="M72.1627 23.5728C71.9495 23.5728 71.7362 23.5728 71.5762 23.5728C69.4967 23.5728 67.4704 24.1593 65.6575 25.2258C63.578 21.7065 59.7921 19.5737 55.7397 19.5737H49.821C38.3035 19.627 28.9723 28.9583 28.9189 40.4757V49.807C30.7852 48.314 33.1313 47.6741 35.4775 48.0474V47.0876C35.4775 46.5011 35.9574 46.0212 36.5439 46.0212H36.7572C40.4364 46.7677 51.314 48.1007 58.7257 38.8228C59.099 38.3429 59.7921 38.2895 60.272 38.6628C60.3253 38.6628 60.3254 38.7161 60.3787 38.7161C61.8717 40.2091 65.5509 42.9818 72.1627 43.7817V23.5728Z" fill="#818182"/>
<path d="M72.1627 43.7817C65.4975 42.9818 61.8716 40.2091 60.3786 38.7161C59.952 38.2895 59.2589 38.2895 58.8323 38.7161C58.779 38.7694 58.779 38.7694 58.779 38.8228C51.3673 48.1007 40.4897 46.821 36.8105 46.0212C36.2239 45.9145 35.6374 46.2878 35.5308 46.8743V47.0876V63.3507C35.5841 74.4949 44.5954 83.5595 55.7396 83.5595C62.2449 83.5595 68.3769 80.3603 72.1627 75.0814V43.7817Z" fill="#F9D0B4"/>
<path d="M118.339 118.698H117.166V117.472C117.166 116.566 116.419 115.872 115.566 115.872C114.66 115.872 113.967 116.619 113.967 117.472V118.645H112.793C111.887 118.645 111.194 119.392 111.194 120.245C111.194 121.151 111.94 121.844 112.793 121.844H113.967V123.018C113.967 123.924 114.713 124.617 115.566 124.617C116.473 124.617 117.166 123.871 117.166 123.018V121.844H118.339C119.245 121.844 119.939 121.098 119.939 120.245C119.992 119.392 119.245 118.698 118.339 118.698Z" fill="#70D6F9"/>
<path d="M38.4631 11.1488C39.4055 11.1488 40.1694 10.3849 40.1694 9.44256C40.1694 8.5002 39.4055 7.73627 38.4631 7.73627C37.5208 7.73627 36.7568 8.5002 36.7568 9.44256C36.7568 10.3849 37.5208 11.1488 38.4631 11.1488Z" fill="#70D6F9"/>
<path d="M137.108 121.525C138.051 121.525 138.814 120.761 138.814 119.818C138.814 118.876 138.051 118.112 137.108 118.112C136.166 118.112 135.402 118.876 135.402 119.818C135.402 120.761 136.166 121.525 137.108 121.525Z" fill="#F5C84C"/>
<path d="M109.914 133.255C110.857 133.255 111.621 132.491 111.621 131.549C111.621 130.607 110.857 129.843 109.914 129.843C108.972 129.843 108.208 130.607 108.208 131.549C108.208 132.491 108.972 133.255 109.914 133.255Z" fill="#87D147"/>
<path d="M32.1182 19.8403C29.9853 19.467 28.3323 17.8141 27.9058 15.7345C27.9058 15.6812 27.8524 15.6279 27.7991 15.6812C27.7458 15.6812 27.7458 15.7345 27.7458 15.7345C27.3192 17.8674 25.6663 19.467 23.5334 19.8403C23.4801 19.8403 23.4268 19.8936 23.4268 19.9469C23.4268 20.0003 23.4801 20.0003 23.5334 20.0536C25.6663 20.4268 27.3192 22.0798 27.7458 24.1593C27.7458 24.2127 27.7991 24.266 27.8524 24.2127C27.9058 24.2127 27.9058 24.1593 27.9058 24.1593C28.3323 22.0265 29.9853 20.4268 32.1182 20.0536C32.1715 20.0536 32.2248 20.0003 32.2248 19.9469C32.2248 19.8936 32.1715 19.8403 32.1182 19.8403Z" fill="#F5C84C"/>
<path d="M33.4511 78.7606C32.0114 78.494 30.8384 77.3742 30.5184 75.9346C30.5184 75.8812 30.4651 75.8812 30.4651 75.8812C30.4118 75.8812 30.4118 75.8812 30.4118 75.9346C30.0919 77.3742 28.9721 78.494 27.4791 78.7606C27.4258 78.7606 27.4258 78.8139 27.4258 78.8139C27.4258 78.8672 27.4258 78.8672 27.4791 78.8672C28.9188 79.1338 30.0919 80.2536 30.4118 81.6933C30.4118 81.7466 30.4651 81.7466 30.4651 81.7466C30.5184 81.7466 30.5184 81.7466 30.5184 81.6933C30.8384 80.2536 31.9581 79.1338 33.4511 78.8672C33.5044 78.8672 33.4511 78.8139 33.4511 78.7606C33.4511 78.8139 33.4511 78.8139 33.4511 78.7606Z" fill="#FC657E"/>
<path d="M35.5305 63.3507V48.0474C30.9448 47.3009 26.5725 50.4469 25.8259 55.0325C25.0794 59.6182 28.2254 63.9905 32.8111 64.737C33.7175 64.897 34.6773 64.897 35.5838 64.737C35.5305 64.2571 35.5305 63.8306 35.5305 63.3507Z" fill="#F9D0B4"/>
<path d="M99.5165 109.847H74.8819C73.3889 109.847 72.1625 108.621 72.1625 107.128V91.0245L69.3365 89.6382C67.097 88.5184 65.7106 86.2789 65.7106 83.7728V80.8934C62.6713 82.653 59.2587 83.5595 55.7395 83.5595C52.2203 83.5595 48.8077 82.653 45.7684 80.8934V83.7728C45.7684 86.2789 44.382 88.5184 42.1425 89.6382L37.3969 91.9843C36.2238 92.5709 34.9974 92.9974 33.7177 93.3174L18.7876 97.0499C15.1618 97.9563 12.549 101.156 12.3357 104.888L9.82962 136.721C9.66965 138.694 11.1627 140.454 13.1356 140.614H13.4022H98.0768C100.05 140.614 101.703 139.014 101.703 136.988C101.703 136.881 101.703 136.774 101.703 136.721L99.5165 109.847Z" fill="#70D6F9"/>
<path d="M72.1627 91.0779L69.3367 89.6915C67.0972 88.5718 65.7108 86.3323 65.7108 83.8261V80.9468C62.6715 82.7064 59.2589 83.6129 55.7397 83.6129C52.2204 83.6129 48.8079 82.7064 45.7685 80.9468V83.8261C45.7685 86.3323 44.3822 88.5718 42.1427 89.6915L38.6768 91.3978C42.3559 97.2632 48.8079 100.836 55.7397 100.836C62.2449 100.836 68.3769 97.6364 72.1627 92.3576V91.0779Z" fill="#F9D0B4"/>
<path d="M55.7394 73.9084C52.0602 73.9084 48.6477 72.0421 46.7281 68.9495C46.3548 68.3096 46.5148 67.5098 47.1547 67.0832C47.7945 66.6566 48.5943 66.8699 49.0209 67.5098C51.3671 71.2423 56.2727 72.362 60.0052 70.0159C61.0183 69.376 61.8714 68.5229 62.5113 67.5098C62.8845 66.8699 63.7377 66.7099 64.3775 67.0832C65.0174 67.4564 65.1774 68.3096 64.8041 68.9495C62.8312 71.9888 59.4186 73.9084 55.7394 73.9084Z" fill="black"/>
<path d="M47.0479 59.6715C48.3731 59.6715 49.4474 58.5972 49.4474 57.272C49.4474 55.9468 48.3731 54.8726 47.0479 54.8726C45.7227 54.8726 44.6484 55.9468 44.6484 57.272C44.6484 58.5972 45.7227 59.6715 47.0479 59.6715Z" fill="black"/>
<path d="M64.8575 59.6715C66.1827 59.6715 67.2569 58.5972 67.2569 57.272C67.2569 55.9468 66.1827 54.8726 64.8575 54.8726C63.5323 54.8726 62.458 55.9468 62.458 57.272C62.458 58.5972 63.5323 59.6715 64.8575 59.6715Z" fill="black"/>
<path d="M34.1974 66.1767C28.8119 66.1767 24.3862 61.8576 24.3862 56.4188C24.3862 50.98 28.7053 46.6077 34.1441 46.6077C34.6773 46.6077 35.2105 46.661 35.7437 46.7143C36.3836 46.821 36.8635 47.3542 36.8635 48.0474V63.3506C36.8635 63.7239 36.8635 64.1505 36.9168 64.6304C36.9701 65.3235 36.4902 65.9101 35.797 66.0167C35.2638 66.1234 34.7306 66.1767 34.1974 66.1767ZM34.1974 49.2737C30.2516 49.2737 27.1056 52.473 27.1056 56.3655C27.1056 60.3113 30.3049 63.4573 34.1974 63.4573C34.1974 63.404 34.1974 63.3506 34.1974 63.2973V49.2737Z" fill="black"/>
<path d="M98.0768 142H13.4555C10.7361 142 8.49658 139.814 8.49658 137.041C8.49658 136.934 8.49658 136.774 8.49658 136.668L11.0027 104.835C11.216 100.516 14.2553 96.8899 18.4677 95.8235L33.3978 92.091C34.5708 91.7711 35.6906 91.3978 36.8103 90.8646L41.556 88.5185C43.3156 87.6653 44.4886 85.8524 44.4353 83.8795V81.0001C44.4353 80.2536 45.0219 79.6671 45.7684 79.6671C45.9816 79.6671 46.2483 79.7204 46.4082 79.827C52.1669 83.133 59.2587 83.133 65.0174 79.827C65.6573 79.4538 66.4571 79.6671 66.8304 80.3069C66.937 80.5202 66.9903 80.7335 66.9903 80.9468V83.8262C66.9903 85.799 68.1101 87.612 69.8697 88.4651L72.6958 89.8515C73.1756 90.0648 73.4423 90.5447 73.4423 91.0246V107.128C73.4423 107.874 74.0288 108.514 74.8286 108.514H99.4632C100.156 108.514 100.743 109.047 100.796 109.74L102.929 136.668C103.142 139.387 101.116 141.787 98.3968 142C98.2901 142 98.1835 142 98.0768 142ZM47.1014 83.133V83.8262C47.1014 86.8122 45.3951 89.5849 42.729 90.8646L37.9834 93.2108C36.757 93.8506 35.424 94.3305 34.0376 94.6504L19.1076 98.3829C16.0149 99.1294 13.8287 101.796 13.6688 104.995L11.1627 136.881C11.056 138.108 12.0158 139.227 13.2422 139.334H13.4022H98.0768C99.3565 139.334 100.37 138.321 100.37 137.041C100.37 136.988 100.37 136.934 100.37 136.881L98.3434 111.18H74.9353C72.6958 111.18 70.8828 109.367 70.8828 107.128V91.8777L68.8033 90.8646C66.0839 89.5316 64.4309 86.8122 64.4309 83.8262V83.133C58.8855 85.5324 52.5935 85.5324 47.1014 83.133Z" fill="black"/>
<path d="M55.7394 102.169C48.3277 102.169 41.4492 98.3829 37.5567 92.1443C37.1835 91.5045 37.3434 90.7046 37.9833 90.2781C38.0366 90.2781 38.0899 90.2247 38.0899 90.2247L41.5558 88.5185C43.3154 87.6653 44.4885 85.8524 44.4352 83.8795V81.0001C44.4352 80.2536 45.0217 79.6671 45.7682 79.6671C45.9815 79.6671 46.2481 79.7204 46.4081 79.827C52.1668 83.133 59.2586 83.133 65.0173 79.827C65.6572 79.4538 66.457 79.6671 66.8303 80.3069C66.9369 80.5202 66.9902 80.7335 66.9902 80.9468V83.8262C66.9902 85.799 68.11 87.612 69.8696 88.4651L72.6956 89.8515C73.1755 90.0648 73.4421 90.5447 73.4421 91.0246V92.251C73.4421 92.5176 73.3355 92.7842 73.1755 93.0508C69.2297 98.7562 62.7245 102.115 55.7394 102.169ZM40.6494 91.8777C46.8347 100.196 58.672 101.955 66.9902 95.7169C68.4299 94.6504 69.7629 93.3174 70.8294 91.8777L68.7498 90.8646C66.0304 89.5316 64.3775 86.8122 64.3775 83.8262V83.133C58.8853 85.5858 52.5934 85.5858 47.1013 83.133V83.8262C47.1013 86.8122 45.395 89.5849 42.7289 90.8646L40.6494 91.8777Z" fill="black"/>
<path d="M128.15 37.863C136.72 37.863 143.667 30.916 143.667 22.3464C143.667 13.7768 136.72 6.82983 128.15 6.82983C119.581 6.82983 112.634 13.7768 112.634 22.3464C112.634 30.916 119.581 37.863 128.15 37.863Z" fill="#87D147"/>
<path d="M124.738 28.6916L119.992 23.946C118.926 22.9329 118.926 21.2266 119.939 20.1602C120.952 19.0937 122.658 19.0937 123.725 20.1068L123.778 20.1602L126.657 23.0395L132.683 17.0142C133.696 15.9478 135.402 15.9478 136.469 16.9609C137.535 17.974 137.535 19.6803 136.522 20.7467L136.469 20.8L128.577 28.6916C127.457 29.7581 125.804 29.7581 124.738 28.6916Z" fill="#EDF4FC"/>
<path d="M128.15 39.196C118.872 39.196 111.301 31.6777 111.301 22.3464C111.301 13.0151 118.872 5.49677 128.15 5.49677C137.428 5.49677 145 13.0151 145 22.3464C145 31.6243 137.428 39.196 128.15 39.196ZM128.15 8.16284C120.312 8.16284 113.967 14.5081 113.967 22.3464C113.967 30.1846 120.312 36.5299 128.15 36.5299C135.989 36.5299 142.334 30.1846 142.334 22.3464C142.334 14.5081 135.989 8.16284 128.15 8.16284Z" fill="black"/>
<path d="M126.657 30.8245C125.591 30.8245 124.578 30.398 123.831 29.6515L119.085 24.9058C117.486 23.3595 117.432 20.8534 118.979 19.2538C120.525 17.6541 123.031 17.6008 124.631 19.1471C124.684 19.2004 124.737 19.2538 124.737 19.2538L126.657 21.1733L131.723 16.1078C133.269 14.5081 135.775 14.4548 137.375 16.0011C138.974 17.5475 139.028 20.0536 137.481 21.6532C137.428 21.7066 137.428 21.7066 137.375 21.7599L129.483 29.6515C128.737 30.398 127.723 30.8245 126.657 30.8245ZM125.697 27.7852C125.964 28.0518 126.284 28.1585 126.657 28.1585C127.03 28.1585 127.35 27.9985 127.617 27.7852L135.508 19.8936C136.042 19.3604 136.042 18.5073 135.508 18.0274C134.975 17.5475 134.175 17.5475 133.642 18.0274L127.617 24.0527C127.084 24.5859 126.23 24.5859 125.751 24.0527L122.871 21.1733C122.338 20.6934 121.538 20.6934 121.005 21.1733C120.472 21.7066 120.472 22.5597 121.005 23.0396L125.697 27.7852Z" fill="black"/>
<path d="M133.802 111.18H74.882C72.6425 111.18 70.8296 109.367 70.8296 107.128V20.9067C70.8296 18.6672 72.6425 16.8542 74.882 16.8542H113.22C113.967 16.8542 114.553 17.4408 114.553 18.1873C114.553 18.2939 114.553 18.4539 114.5 18.5605C112.42 26.0789 116.793 33.9172 124.364 35.9967C128.257 37.0631 132.416 36.4766 135.829 34.2904C136.468 33.9172 137.268 34.0771 137.695 34.717C137.855 34.9303 137.908 35.1969 137.908 35.4102V107.181C137.855 109.367 136.042 111.18 133.802 111.18ZM74.882 19.5203C74.1355 19.5203 73.4957 20.1069 73.4957 20.9067V107.181C73.4957 107.927 74.0822 108.567 74.882 108.567H133.802C134.549 108.567 135.189 107.981 135.189 107.181V37.6497C126.764 41.5421 116.739 37.8629 112.847 29.3848C111.407 26.2922 110.981 22.8796 111.567 19.5203H74.882Z" fill="black"/>
<path d="M28.919 51.14C28.1725 51.14 27.5859 50.5535 27.5859 49.807V40.4757C27.5859 28.2117 37.5571 18.2939 49.821 18.2406H55.7397C59.8455 18.2406 63.6313 20.2135 66.0841 23.4661C68.0037 22.5596 70.1366 22.1331 72.2161 22.2397C72.9093 22.293 73.4958 22.8796 73.4958 23.5728V43.7283C73.4958 44.4748 72.9093 45.0613 72.1628 45.0613C72.1095 45.0613 72.0561 45.0613 72.0028 45.0613C65.2843 44.2615 61.3918 41.5421 59.6322 39.8358C51.9006 49.3804 40.5964 48.154 36.8639 47.4075V48.0474C36.8639 48.7939 36.2774 49.3804 35.5309 49.3804C35.4775 49.3804 35.3709 49.3804 35.3176 49.3804C34.9443 49.3271 34.5711 49.2738 34.1978 49.2738C32.5982 49.2738 30.9985 49.807 29.7721 50.8201C29.5588 51.0334 29.2389 51.14 28.919 51.14ZM49.821 20.9067C39.0501 20.9067 30.3053 29.6514 30.252 40.4757V47.4608C31.4784 46.9276 32.8115 46.6077 34.1978 46.661C34.4644 45.328 35.7441 44.5281 37.0239 44.7947C41.023 45.5412 50.9408 46.5544 57.7126 38.0229C58.5658 36.9565 60.0588 36.7965 61.1252 37.6497C61.1785 37.703 61.2319 37.7563 61.3385 37.8096C62.6715 39.1427 65.6042 41.3288 70.8831 42.2353V24.9591C69.2834 25.0658 67.7371 25.5457 66.404 26.3988C65.7642 26.7721 64.9644 26.5588 64.5911 25.9189C62.7249 22.8263 59.4189 20.96 55.8464 20.9067H49.821Z" fill="black"/>
<path d="M55.7397 84.9459C43.849 84.9459 34.1978 75.2947 34.1978 63.404V47.0876C34.1978 46.3411 34.5177 45.6479 35.1042 45.2213C35.6908 44.7414 36.4373 44.5815 37.1304 44.7414C41.0229 45.5413 50.9407 46.5544 57.7126 38.0229C58.5657 36.9565 60.0587 36.7965 61.1251 37.6497C61.1785 37.703 61.2318 37.7563 61.3384 37.8096C62.7781 39.2493 66.1374 41.7554 72.376 42.5019C73.0692 42.6086 73.5491 43.1418 73.5491 43.835V75.188C73.5491 75.4547 73.4424 75.7213 73.2825 75.9879C69.23 81.5333 62.6715 84.8926 55.7397 84.9459ZM36.8638 47.4075V63.3507C36.8638 73.8017 45.2886 82.2265 55.7397 82.2265C61.7117 82.2265 67.3105 79.4004 70.883 74.6548V44.9014C64.8577 43.9416 61.3384 41.4355 59.6855 39.8359C51.9005 49.3804 40.5963 48.154 36.8638 47.4075Z" fill="black"/>
<path d="M113.807 44.5815H95.1441C94.3976 44.5815 93.811 43.9949 93.811 43.2484C93.811 42.5019 94.3976 41.9154 95.1441 41.9154H113.807C114.553 41.9154 115.14 42.5019 115.14 43.2484C115.14 43.9949 114.553 44.5815 113.807 44.5815Z" fill="black"/>
<path d="M124.684 55.2458H90.1319C89.3854 55.2458 88.7988 54.6593 88.7988 53.9128C88.7988 53.1662 89.3854 52.5797 90.1319 52.5797H124.684C125.431 52.5797 126.017 53.1662 126.017 53.9128C126.017 54.6593 125.431 55.2458 124.684 55.2458Z" fill="black"/>
<path d="M124.684 62.0176H90.1319C89.3854 62.0176 88.7988 61.4311 88.7988 60.6846C88.7988 59.9381 89.3854 59.3516 90.1319 59.3516H124.684C125.431 59.3516 126.017 59.9381 126.017 60.6846C126.017 61.4311 125.431 62.0176 124.684 62.0176Z" fill="black"/>
<path d="M124.684 68.7895H90.1319C89.3854 68.7895 88.7988 68.203 88.7988 67.4565C88.7988 66.71 89.3854 66.1234 90.1319 66.1234H124.684C125.431 66.1234 126.017 66.71 126.017 67.4565C126.017 68.203 125.431 68.7895 124.684 68.7895Z" fill="black"/>
<path d="M124.684 75.5613H90.1319C89.3854 75.5613 88.7988 74.9747 88.7988 74.2282C88.7988 73.4817 89.3854 72.8952 90.1319 72.8952H124.684C125.431 72.8952 126.017 73.4817 126.017 74.2282C126.017 74.9214 125.431 75.5613 124.684 75.5613Z" fill="black"/>
<path d="M124.684 82.2798H90.1319C89.3854 82.2798 88.7988 81.6933 88.7988 80.9468C88.7988 80.2003 89.3854 79.6138 90.1319 79.6138H124.684C125.431 79.6138 126.017 80.2003 126.017 80.9468C126.017 81.6933 125.431 82.2798 124.684 82.2798Z" fill="black"/>
<path d="M124.684 89.0516H90.1319C89.3854 89.0516 88.7988 88.4651 88.7988 87.7186C88.7988 86.9721 89.3854 86.3856 90.1319 86.3856H124.684C125.431 86.3856 126.017 86.9721 126.017 87.7186C126.017 88.4651 125.431 89.0516 124.684 89.0516Z" fill="black"/>
<path d="M84.1601 55.2458H83.147C82.4005 55.2458 81.814 54.6593 81.814 53.9128C81.814 53.1662 82.4005 52.5797 83.147 52.5797H84.1601C84.9066 52.5797 85.4931 53.1662 85.4931 53.9128C85.4931 54.6593 84.9066 55.2458 84.1601 55.2458Z" fill="black"/>
<path d="M84.1601 62.0176H83.147C82.4005 62.0176 81.814 61.4311 81.814 60.6846C81.814 59.9381 82.4005 59.3516 83.147 59.3516H84.1601C84.9066 59.3516 85.4931 59.9381 85.4931 60.6846C85.4931 61.4311 84.9066 62.0176 84.1601 62.0176Z" fill="black"/>
<path d="M84.1601 68.7895H83.147C82.4005 68.7895 81.814 68.203 81.814 67.4565C81.814 66.71 82.4005 66.1234 83.147 66.1234H84.1601C84.9066 66.1234 85.4931 66.71 85.4931 67.4565C85.4931 68.203 84.9066 68.7895 84.1601 68.7895Z" fill="black"/>
<path d="M84.1601 75.5613H83.147C82.4005 75.5613 81.814 74.9747 81.814 74.2282C81.814 73.4817 82.4005 72.8952 83.147 72.8952H84.1601C84.9066 72.8952 85.4931 73.4817 85.4931 74.2282C85.4931 74.9214 84.9066 75.5613 84.1601 75.5613Z" fill="black"/>
<path d="M84.1601 82.2798H83.147C82.4005 82.2798 81.814 81.6933 81.814 80.9468C81.814 80.2003 82.4005 79.6138 83.147 79.6138H84.1601C84.9066 79.6138 85.4931 80.2003 85.4931 80.9468C85.4931 81.6933 84.9066 82.2798 84.1601 82.2798Z" fill="black"/>
<path d="M84.1601 89.0516H83.147C82.4005 89.0516 81.814 88.4651 81.814 87.7186C81.814 86.9721 82.4005 86.3856 83.147 86.3856H84.1601C84.9066 86.3856 85.4931 86.9721 85.4931 87.7186C85.4931 88.4651 84.9066 89.0516 84.1601 89.0516Z" fill="black"/>
<path d="M26.0928 140.4C25.3463 140.4 24.7598 139.814 24.7598 139.067V118.538C24.7598 117.792 25.3463 117.205 26.0928 117.205C26.8393 117.205 27.4258 117.792 27.4258 118.538V139.067C27.4258 139.814 26.8393 140.4 26.0928 140.4Z" fill="black"/>
<path d="M85.813 140.4C85.0665 140.4 84.48 139.814 84.48 139.067V118.538C84.48 117.792 85.0665 117.205 85.813 117.205C86.5595 117.205 87.1461 117.792 87.1461 118.538V139.067C87.1461 139.814 86.5595 140.4 85.813 140.4Z" fill="black"/>
</g>
<defs>
<clipPath id="clip0_42_862">
<rect width="136.503" height="136.503" fill="white" transform="translate(8.49658 5.49677)"/>
</clipPath>
</defs>
</svg>
