<svg width="98" height="84" viewBox="0 0 98 84" fill="none" xmlns="http://www.w3.org/2000/svg">
<path d="M93.8632 15.1914H3.54106C1.58484 15.1914 0 16.675 0 18.5045V80.6868C0 82.5163 1.58484 83.9999 3.54106 83.9999H93.8632C95.8189 83.9999 97.4043 82.5163 97.4043 80.6868V18.5045C97.4043 16.6745 95.8189 15.1914 93.8632 15.1914Z" fill="black"/>
<path d="M85.5438 20.5532H10.9661C9.35087 20.5532 8.04248 21.7864 8.04248 23.307V74.991C8.04248 76.5115 9.3514 77.7447 10.9661 77.7447H85.5438C87.1586 77.7447 88.468 76.5115 88.468 74.991V23.307C88.468 21.7859 87.1586 20.5532 85.5438 20.5532Z" fill="white"/>
<path d="M80.4258 46.736C80.4258 47.8708 79.6771 48.7913 78.7532 48.7913H54.3962C53.4723 48.7913 52.7236 47.8714 52.7236 46.736C52.7236 45.6011 53.4723 44.6807 54.3962 44.6807H78.7532C79.6771 44.6807 80.4258 45.6011 80.4258 46.736ZM80.4258 63.1785C80.4258 64.3134 79.6771 65.2339 78.7532 65.2339H54.3962C53.4723 65.2339 52.7236 64.3139 52.7236 63.1785C52.7236 62.0437 53.4723 61.1232 54.3962 61.1232H78.7532C79.6771 61.1232 80.4258 62.0432 80.4258 63.1785Z" fill="#00E2D6"/>
<path d="M42.1752 32.1704H17.6968C17.4856 32.17 17.2763 32.2119 17.081 32.2939C16.8856 32.3758 16.7081 32.4961 16.5584 32.648C16.4087 32.7998 16.2899 32.9802 16.2086 33.1788C16.1274 33.3774 16.0854 33.5903 16.085 33.8055V64.4928C16.0853 64.708 16.1273 64.9209 16.2085 65.1196C16.2897 65.3182 16.4085 65.4986 16.5582 65.6505C16.7079 65.8023 16.8855 65.9226 17.0809 66.0045C17.2763 66.0865 17.4856 66.1284 17.6968 66.1279H42.1752C42.3865 66.1283 42.5957 66.0863 42.7911 66.0044C42.9864 65.9225 43.164 65.8021 43.3137 65.6503C43.4633 65.4985 43.5822 65.3181 43.6634 65.1195C43.7446 64.9209 43.7867 64.7079 43.7871 64.4928V33.8055C43.7861 33.371 43.6158 32.9547 43.3135 32.6481C43.0113 32.3415 42.6018 32.1697 42.1752 32.1704Z" fill="#EFEFEF"/>
<path d="M32.6755 62.5308L32.0937 62.5298L31.1757 62.5351L18.7675 62.5131L18.7686 61.9106C18.7686 61.9106 18.5048 58.5464 23.4216 57.6942C23.4216 57.6942 27.1641 57.1922 27.4284 56.1553C27.4284 56.1553 27.5712 56.0403 27.4678 54.8359C27.2478 52.2713 25.5849 51.0609 24.913 50.0798C24.2416 49.0977 24.1873 47.9668 24.1873 47.9668C24.1878 47.6838 24.3056 47.5802 24.5017 47.3992C24.743 47.1748 24.6711 46.9364 24.6253 46.6834C24.4516 45.7233 24.4388 44.1811 24.6072 43.2156C24.6466 42.0659 25.6962 41.1439 25.6962 41.1439C25.8934 40.9764 26.0905 40.7917 26.229 40.5699C26.2674 40.5082 26.3031 40.4421 26.3239 40.3718C26.4038 40.1076 26.1369 39.9126 26.1907 39.6307C26.2397 39.3773 26.6713 39.3655 26.9324 39.352C27.5206 39.322 28.112 39.2994 28.6992 39.3461C33.0933 39.6935 34.5351 41.3265 34.5351 41.3265C34.8766 41.74 35.1014 42.2453 35.2357 42.7635C35.2762 42.9181 35.3103 43.076 35.3295 43.2355C35.4648 44.0286 35.4627 44.8561 35.419 45.6573C35.3977 46.0396 35.3535 46.416 35.2965 46.7941C35.2672 46.9917 35.2821 47.1758 35.4131 47.3343C35.5224 47.4669 35.6476 47.5598 35.7009 47.7338C35.7264 47.8149 35.7328 47.9029 35.7328 47.9872C35.7328 47.9872 35.6742 49.1186 34.9991 50.0976C34.3241 51.077 32.6569 52.2809 32.4278 54.8445C32.3202 56.0489 32.463 56.1644 32.463 56.1644C32.723 57.2024 36.4639 57.7179 36.4639 57.7179C41.4323 58.656 41.102 61.9509 41.102 61.9509L41.1009 62.5534L37.8289 62.5475L38.3441 62.541L37.904 62.5405L36.9913 62.5383L32.6755 62.5308Z" fill="#00E2D6"/>
<path d="M39.3193 9.82959H57.1917V19.6594H39.3193V9.82959Z" fill="#00E2D6"/>
<path d="M43.7871 0H53.6169V12.5106H43.7871V0Z" fill="black"/>
</svg>
