<svg width="79" height="79" viewBox="0 0 79 79" fill="none" xmlns="http://www.w3.org/2000/svg">
<g clip-path="url(#clip0_935_418)">
<path d="M18.3724 65.2209C16.9113 65.2192 15.5105 64.638 14.4774 63.6047C13.4442 62.5715 12.863 61.1706 12.8613 59.7093V18.3721C12.863 16.9109 13.4442 15.5099 14.4774 14.4767C15.5105 13.4434 16.9113 12.8622 18.3724 12.8605H38.4834L54.1985 28.588V59.7093C54.1968 61.1706 53.6157 62.5715 52.5825 63.6047C51.5493 64.638 50.1486 65.2192 48.6875 65.2209H18.3724Z" fill="#00E2D6"/>
<path d="M63.1996 77.025C60.8559 77.025 58.5648 76.33 56.6161 75.0279C54.6674 73.7258 53.1485 71.8751 52.2516 69.7098C51.3547 67.5445 51.1201 65.1619 51.5773 62.8632C52.0345 60.5645 53.1631 58.4531 54.8204 56.7958C56.4776 55.1386 58.5891 54.0099 60.8878 53.5527C63.1865 53.0955 65.5691 53.3301 67.7344 54.227C69.8997 55.1239 71.7504 56.6428 73.0525 58.5915C74.3546 60.5402 75.0496 62.8313 75.0496 65.175C75.0463 68.3168 73.7968 71.329 71.5752 73.5506C69.3536 75.7722 66.3414 77.0218 63.1996 77.025Z" fill="#E8A52D"/>
<path d="M17.7746 39.5C17.7746 38.9762 17.9827 38.4738 18.3531 38.1035C18.7235 37.7331 19.2258 37.525 19.7496 37.525H31.5996C32.1234 37.525 32.6258 37.7331 32.9961 38.1035C33.3665 38.4738 33.5746 38.9762 33.5746 39.5C33.5746 40.0238 33.3665 40.5261 32.9961 40.8965C32.6258 41.2669 32.1234 41.475 31.5996 41.475H19.7496C19.2258 41.475 18.7235 41.2669 18.3531 40.8965C17.9827 40.5261 17.7746 40.0238 17.7746 39.5ZM43.4496 45.425H19.7496C19.2258 45.425 18.7235 45.6331 18.3531 46.0035C17.9827 46.3738 17.7746 46.8762 17.7746 47.4C17.7746 47.9238 17.9827 48.4262 18.3531 48.7965C18.7235 49.1669 19.2258 49.375 19.7496 49.375H43.4496C43.9734 49.375 44.4758 49.1669 44.8461 48.7965C45.2165 48.4262 45.4246 47.9238 45.4246 47.4C45.4246 46.8762 45.2165 46.3738 44.8461 46.0035C44.4758 45.6331 43.9734 45.425 43.4496 45.425ZM43.391 53.325H19.7496C19.2258 53.325 18.7235 53.5331 18.3531 53.9035C17.9827 54.2738 17.7746 54.7762 17.7746 55.3C17.7746 55.8238 17.9827 56.3261 18.3531 56.6965C18.7235 57.0669 19.2258 57.275 19.7496 57.275H43.391C43.9148 57.275 44.4171 57.0669 44.7875 56.6965C45.1579 56.3261 45.366 55.8238 45.366 55.3C45.366 54.7762 45.1579 54.2738 44.7875 53.9035C44.4171 53.5331 43.9148 53.325 43.391 53.325ZM77.0277 65.175C77.0298 67.3598 76.5135 69.514 75.5214 71.4605C74.5293 73.4071 73.0895 75.0906 71.3204 76.3726C69.5513 77.6547 67.5033 78.4988 65.3446 78.8356C63.1859 79.1725 60.978 78.9924 58.9024 78.3103C57.7558 78.7654 56.5333 78.9994 55.2996 79H11.8496C9.2306 79 6.71885 77.9596 4.86693 76.1077C3.01501 74.2558 1.97461 71.744 1.97461 69.125V9.875C1.97461 7.25599 3.01501 4.74424 4.86693 2.89232C6.71885 1.0404 9.2306 0 11.8496 0L41.4962 0L65.1746 23.7V51.5074C68.4631 51.9801 71.4711 53.622 73.6475 56.1321C75.8239 58.6423 77.0228 61.8527 77.0246 65.175H77.0277ZM43.4496 7.57289V15.8C43.4512 17.3709 44.076 18.877 45.1868 19.9878C46.2976 21.0986 47.8037 21.7234 49.3746 21.725H57.5662L43.4496 7.57289ZM53.5406 75.05C51.6973 73.2494 50.3946 70.9688 49.7801 68.4664C49.1655 65.9639 49.2635 63.3393 50.0631 60.8897C50.8626 58.44 52.3317 56.263 54.3042 54.6049C56.2768 52.9468 58.674 51.8739 61.2246 51.5074V25.675H49.3746C46.7556 25.675 44.2439 24.6346 42.3919 22.7827C40.54 20.9308 39.4996 18.419 39.4996 15.8V3.95H11.8496C10.2787 3.95163 8.7726 4.5764 7.66181 5.6872C6.55101 6.798 5.92624 8.30409 5.92461 9.875V69.125C5.92624 70.6959 6.55101 72.202 7.66181 73.3128C8.7726 74.4236 10.2787 75.0484 11.8496 75.05H53.5406ZM73.0823 65.175C73.0823 63.2219 72.5032 61.3127 71.4181 59.6887C70.333 58.0648 68.7907 56.7991 66.9863 56.0517C65.1819 55.3043 63.1964 55.1087 61.2808 55.4897C59.3652 55.8708 57.6057 56.8113 56.2246 58.1923C54.8436 59.5734 53.9031 61.3329 53.5221 63.2485C53.141 65.164 53.3366 67.1496 54.084 68.954C54.8314 70.7584 56.0971 72.3007 57.7211 73.3858C59.345 74.4708 61.2542 75.05 63.2073 75.05C65.8241 75.0451 68.3322 74.0029 70.1819 72.1518C72.0315 70.3007 73.0718 67.7918 73.0746 65.175H73.0823ZM63.2073 59.25C62.6835 59.25 62.1812 59.4581 61.8108 59.8285C61.4404 60.1988 61.2323 60.7012 61.2323 61.225V63.2C61.2323 63.7238 61.4404 64.2262 61.8108 64.5965C62.1812 64.9669 62.6835 65.175 63.2073 65.175C63.7311 65.175 64.2335 64.9669 64.6039 64.5965C64.9742 64.2262 65.1823 63.7238 65.1823 63.2V61.225C65.1823 60.965 65.131 60.7075 65.0312 60.4674C64.9315 60.2273 64.7854 60.0092 64.6011 59.8257C64.4169 59.6422 64.1983 59.4969 63.9578 59.3981C63.7173 59.2993 63.4596 59.249 63.1996 59.25H63.2073ZM65.0342 68.3643C64.9815 68.2472 64.919 68.1347 64.8475 68.028C64.7791 67.9184 64.696 67.8188 64.6006 67.7317C64.5128 67.6365 64.4127 67.5535 64.3028 67.4848C64.1963 67.4126 64.0838 67.3496 63.9665 67.2966C63.8458 67.2469 63.7201 67.2107 63.5915 67.1886C63.3367 67.1393 63.0748 67.1393 62.82 67.1886C62.6912 67.2094 62.5653 67.2457 62.4451 67.2966C62.3279 67.3498 62.2154 67.4128 62.1087 67.4848C61.9994 67.5535 61.8998 67.6365 61.8125 67.7317C61.7171 67.8188 61.634 67.9184 61.5656 68.028C61.49 68.1324 61.4268 68.2453 61.3774 68.3643C61.3277 68.4849 61.2915 68.6107 61.2694 68.7393C61.2413 68.8659 61.2278 68.9953 61.2292 69.125C61.2309 69.3857 61.2833 69.6435 61.3835 69.8841C61.5949 70.3591 61.9748 70.7389 62.4497 70.9503C62.9375 71.1485 63.4833 71.1485 63.9711 70.9503C64.4466 70.7397 64.8266 70.3596 65.0373 69.8841C65.1379 69.6436 65.1903 69.3857 65.1916 69.125C65.193 68.9953 65.1795 68.8659 65.1515 68.7393C65.1234 68.6101 65.0815 68.4844 65.0265 68.3643H65.0342Z" fill="#141F38"/>
</g>
<defs>
<clipPath id="clip0_935_418">
<rect width="79" height="79" fill="white"/>
</clipPath>
</defs>
</svg>
