<svg width="21" height="26" viewBox="0 0 21 26" fill="none" xmlns="http://www.w3.org/2000/svg">
<path d="M20.5078 1.94084V21.1327H0.0390625V6.09254L5.42969 0.6875H19.2969C19.9609 0.6875 20.5078 1.275 20.5078 1.94084Z" fill="#EFF2F3"/>
<path d="M4.29688 6.09254H0.078125L5.42969 0.6875L5.39062 4.91753C5.42969 5.58337 4.92188 6.09254 4.29688 6.09254Z" fill="#DADEDE"/>
<path d="M12.2656 11.6544C11.1328 10.5577 10.3125 9.30435 10.3125 9.30435C10.625 8.83434 11.3672 6.13182 10.2344 5.34848C9.10156 4.56514 8.51562 6.01432 8.51562 6.01432C8.00781 7.816 9.21875 9.46102 9.21875 9.46102L7.85156 12.4769C7.69531 12.4769 3.35938 14.1611 4.84375 16.2369C6.36719 18.3128 8.47656 13.2994 8.47656 13.2994C9.29688 13.0252 11.7969 12.6727 11.7969 12.6727C12.7734 14.0044 13.9453 14.4352 13.9453 14.4352C15.7422 14.9052 15.9375 13.4169 15.9375 13.4169C15.9766 11.4585 12.2656 11.6544 12.2656 11.6544ZM5.58594 15.5319C5.54688 15.5319 5.54688 15.4927 5.54688 15.4927C5.3125 14.9444 7.10938 13.8869 7.10938 13.8869C7.10938 13.8869 6.13281 15.7669 5.58594 15.5319ZM9.64844 6.05349C10.1562 6.52349 9.72656 8.12934 9.72656 8.12934C9.72656 8.12934 9.14062 6.52349 9.64844 6.05349ZM9.17969 12.1244L9.88281 10.401L10.9766 11.7327L9.17969 12.1244ZM14.9609 13.3777C14.6484 13.8869 13.3594 12.7902 13.2422 12.6727C13.4375 12.6727 15.1172 12.7902 14.9609 13.3777ZM20.5078 19.8794V24.5011C20.5078 25.167 19.9609 25.7545 19.2578 25.7545H1.25C0.585937 25.7545 0 25.2061 0 24.5011V19.8794H20.5078Z" fill="#F2786B"/>
<path d="M8.67187 21.916C8.67187 22.2293 8.55469 22.4643 8.35937 22.6601C8.16406 22.8168 7.85156 22.8952 7.46094 22.8952H7.14844V24.031H6.64062V21.0151H7.53906C7.92969 21.0151 8.20312 21.0935 8.39844 21.2501C8.59375 21.4068 8.67187 21.6026 8.67187 21.916ZM7.1875 22.5035H7.46094C7.69531 22.5035 7.89062 22.4643 8.00781 22.386C8.125 22.3076 8.20312 22.151 8.20312 21.9551C8.20312 21.7985 8.16406 21.6418 8.04687 21.5635C7.92969 21.4851 7.77344 21.446 7.53906 21.446H7.1875V22.5035ZM11.7578 22.5035C11.7578 23.0127 11.6016 23.4043 11.3281 23.6393C11.0547 23.9135 10.6641 24.031 10.1172 24.031H9.25781V21.0151H10.1953C10.6641 21.0151 11.0547 21.1326 11.3281 21.4068C11.6016 21.6418 11.7578 22.0335 11.7578 22.5035ZM11.2109 22.5035C11.2109 21.7593 10.8594 21.4068 10.1953 21.4068H9.76562V23.6002H10.1172C10.8594 23.6393 11.2109 23.2477 11.2109 22.5035ZM12.8906 24.031H12.3828V21.0151H14.1016V21.446H12.8906V22.386H14.0234V22.8168H12.8906V24.031Z" fill="#EFF2F3"/>
</svg>
