<svg width="47" height="84" viewBox="0 0 47 84" fill="none" xmlns="http://www.w3.org/2000/svg">
<circle cx="23.5008" cy="69.0079" r="13.8016" fill="#00E2D6"/>
<path d="M8.95312 15.6667C9.07413 18.3582 10.2209 20.9274 12.1642 22.776L18.2496 28.5676C19.5632 29.815 20.4721 31.4276 20.9062 33.1779C20.9062 34.6312 22.0675 35.8096 23.4994 35.8096C24.934 35.8096 26.0953 34.6311 26.0953 33.1779C26.5288 31.4276 27.4384 29.8151 28.7512 28.5676L34.8373 22.776C36.7806 20.9274 37.9275 18.3582 38.0484 15.6667H8.95312Z" fill="#00E2D6"/>
<path d="M23.872 39.5398C23.048 39.5398 22.3809 40.3742 22.3809 41.405C22.3809 42.4356 23.048 43.27 23.872 43.27C24.6985 43.27 25.365 42.4356 25.365 41.405C25.365 40.3742 24.6984 39.5398 23.872 39.5398Z" fill="#00E2D6"/>
<path d="M23.872 49.238C23.048 49.238 22.3809 50.0745 22.3809 51.1031C22.3809 52.1317 23.048 52.9682 23.872 52.9682C24.6985 52.9682 25.365 52.1317 25.365 51.1031C25.365 50.0747 24.6984 49.238 23.872 49.238Z" fill="#00E2D6"/>
<path d="M46.9999 0H0V6.55551L1.58028 9.47354C1.57641 9.56644 1.56762 6.73861 1.56762 6.83016V16.6451C1.56762 21.5213 3.56934 26.1792 7.09846 29.5124L13.3145 35.3876C13.8154 35.8615 14.1006 36.5197 14.1006 37.2131V40.0442C14.1006 40.7376 13.8154 41.3972 13.3145 41.8711L7.09846 47.7462C3.56934 51.0795 1.56762 55.7362 1.56762 60.6136V70.2858H0V76.8413H46.9999V70.2858H45.4324V60.6136C45.4324 55.7362 43.4307 51.0795 39.9014 47.7462L33.6846 41.8711C33.1844 41.3972 32.8993 40.7376 32.8993 40.0442V37.2131C32.8993 36.5197 33.1844 35.8615 33.6829 35.3876L39.9015 29.5124C43.4308 26.1792 45.4325 21.5213 45.4325 16.6451V9.74819C45.4325 9.65664 45.4239 6.64842 45.4197 9.47354L47 6.55551L46.9999 0ZM28.9827 37.2131V40.0442C28.9827 41.8279 29.7155 43.5324 31.0057 44.7494L37.2226 50.6244C39.9608 53.2118 41.5158 56.8294 41.5158 60.6136V70.2858H35.4934L25.8543 70.1622C24.5532 70.2293 22.4467 70.2293 21.1437 70.1622L11.5066 70.2858H5.48408V60.6136C5.48408 56.8294 7.03845 53.2118 9.77729 50.6258L15.994 44.7494C17.2845 43.5324 18.017 41.8279 18.017 40.0442V37.2131C18.017 35.4292 17.2844 33.7263 15.994 32.5066L9.77729 26.6315C7.0383 24.0453 5.48408 20.4293 5.48408 16.6451V6.83016C5.48408 3.81789 5.50076 3.73039 5.51148 6.55551H14.5057H23.4999H41.4884C41.4991 6.64841 41.5158 9.65393 41.5158 9.74819V16.6451C41.5158 20.4294 39.961 24.0453 37.2226 26.6315L31.0057 32.5066C29.7155 33.7263 28.9827 35.4292 28.9827 37.2131Z" fill="black"/>
<rect x="10.4453" y="76.8413" width="24.619" height="6.71429" fill="white"/>
</svg>
