<svg width="16" height="16" viewBox="0 0 16 16" fill="none" xmlns="http://www.w3.org/2000/svg">
<circle cx="8" cy="8" r="8" fill="white"/>
<path d="M7.85008 10.5694C7.75324 10.5694 7.67131 10.5396 7.60427 10.48C7.54468 10.413 7.51116 10.3124 7.50371 10.1784L7.2579 5.34037C7.243 5.13925 7.28769 4.9791 7.39198 4.85992C7.49626 4.74074 7.64896 4.68115 7.85008 4.68115C8.04375 4.68115 8.19272 4.74074 8.29701 4.85992C8.40129 4.9791 8.44598 5.13925 8.43108 5.34037L8.18527 10.1784C8.17783 10.3124 8.14431 10.413 8.08472 10.48C8.02513 10.5396 7.94691 10.5694 7.85008 10.5694ZM7.85008 12.6812C7.65641 12.6812 7.49626 12.6178 7.36963 12.4912C7.243 12.3646 7.17969 12.2044 7.17969 12.0108C7.17969 11.8171 7.243 11.6607 7.36963 11.5415C7.49626 11.4223 7.65641 11.3627 7.85008 11.3627C8.05864 11.3627 8.21879 11.4223 8.33053 11.5415C8.44971 11.6607 8.5093 11.8171 8.5093 12.0108C8.5093 12.2044 8.44971 12.3646 8.33053 12.4912C8.21879 12.6178 8.05864 12.6812 7.85008 12.6812Z" fill="black"/>
</svg>
