<svg width="709" height="345" viewBox="0 0 709 345" fill="none" xmlns="http://www.w3.org/2000/svg">
<rect width="345" height="345" fill="#211D33"/>
<rect x="364" width="345" height="345" fill="#211D33"/>
<path d="M139.699 143H123.348L116.848 126.09H87.0898L80.9453 143H65L93.9961 68.5547H109.891L139.699 143ZM112.023 113.547L101.766 85.9219L91.7109 113.547H112.023Z" fill="white"/>
<path d="M139.699 143V144H141.177L140.628 142.628L139.699 143ZM123.348 143L122.414 143.359L122.661 144H123.348V143ZM116.848 126.09L117.781 125.731L117.535 125.09H116.848V126.09ZM87.0898 126.09V125.09H86.3892L86.15 125.748L87.0898 126.09ZM80.9453 143V144H81.6459L81.8852 143.342L80.9453 143ZM65 143L64.0682 142.637L63.5373 144H65V143ZM93.9961 68.5547V67.5547H93.3124L93.0643 68.1918L93.9961 68.5547ZM109.891 68.5547L110.819 68.183L110.567 67.5547H109.891V68.5547ZM112.023 113.547V114.547H113.461L112.961 113.199L112.023 113.547ZM101.766 85.9219L102.703 85.5738L101.756 83.0239L100.826 85.5799L101.766 85.9219ZM91.7109 113.547L90.7712 113.205L90.2828 114.547H91.7109V113.547ZM139.699 142H123.348V144H139.699V142ZM124.281 142.641L117.781 125.731L115.914 126.449L122.414 143.359L124.281 142.641ZM116.848 125.09H87.0898V127.09H116.848V125.09ZM86.15 125.748L80.0054 142.658L81.8852 143.342L88.0297 126.431L86.15 125.748ZM80.9453 142H65V144H80.9453V142ZM65.9318 143.363L94.9279 68.9176L93.0643 68.1918L64.0682 142.637L65.9318 143.363ZM93.9961 69.5547H109.891V67.5547H93.9961V69.5547ZM108.962 68.9264L138.771 143.372L140.628 142.628L110.819 68.183L108.962 68.9264ZM112.961 113.199L102.703 85.5738L100.828 86.27L111.086 113.895L112.961 113.199ZM100.826 85.5799L90.7712 113.205L92.6506 113.889L102.705 86.2639L100.826 85.5799ZM91.7109 114.547H112.023V112.547H91.7109V114.547Z" fill="white"/>
<path d="M222.973 143V69.1641H238.004V130.457H275.379V143H222.973Z" fill="white"/>
<path d="M222.973 143H221.973V144H222.973V143ZM222.973 69.1641V68.1641H221.973V69.1641H222.973ZM238.004 69.1641H239.004V68.1641H238.004V69.1641ZM238.004 130.457H237.004V131.457H238.004V130.457ZM275.379 130.457H276.379V129.457H275.379V130.457ZM275.379 143V144H276.379V143H275.379ZM223.973 143V69.1641H221.973V143H223.973ZM222.973 70.1641H238.004V68.1641H222.973V70.1641ZM237.004 69.1641V130.457H239.004V69.1641H237.004ZM238.004 131.457H275.379V129.457H238.004V131.457ZM274.379 130.457V143H276.379V130.457H274.379ZM275.379 142H222.973V144H275.379V142Z" fill="white"/>
<path d="M72.6172 208.555H102.375C108.266 208.555 112.65 208.809 115.527 209.316C118.439 209.79 121.029 210.806 123.297 212.363C125.599 213.921 127.512 216.003 129.035 218.609C130.559 221.182 131.32 224.077 131.32 227.293C131.32 230.78 130.372 233.979 128.477 236.891C126.615 239.802 124.076 241.986 120.859 243.441C125.396 244.762 128.883 247.013 131.32 250.195C133.758 253.378 134.977 257.118 134.977 261.418C134.977 264.803 134.181 268.104 132.59 271.32C131.033 274.503 128.883 277.059 126.141 278.988C123.432 280.884 120.081 282.052 116.086 282.492C113.581 282.763 107.538 282.932 97.957 283H72.6172V208.555ZM87.6484 220.945V238.16H97.5C103.357 238.16 106.996 238.076 108.418 237.906C110.991 237.602 113.005 236.721 114.461 235.266C115.951 233.776 116.695 231.829 116.695 229.426C116.695 227.124 116.052 225.262 114.766 223.84C113.513 222.384 111.634 221.504 109.129 221.199C107.639 221.03 103.357 220.945 96.2812 220.945H87.6484ZM87.6484 250.551V270.457H101.562C106.979 270.457 110.415 270.305 111.871 270C114.105 269.594 115.917 268.612 117.305 267.055C118.727 265.464 119.438 263.348 119.438 260.707C119.438 258.473 118.896 256.577 117.812 255.02C116.729 253.462 115.155 252.328 113.09 251.617C111.059 250.906 106.624 250.551 99.7852 250.551H87.6484Z" fill="white"/>
<path d="M72.6172 208.555V207.555H71.6172V208.555H72.6172ZM115.527 209.316L115.354 210.301L115.367 210.303L115.527 209.316ZM123.297 212.363L122.731 213.188L122.737 213.192L123.297 212.363ZM129.035 218.609L128.172 219.114L128.175 219.119L129.035 218.609ZM128.477 236.891L127.639 236.345L127.634 236.352L128.477 236.891ZM120.859 243.441L120.447 242.53L117.983 243.646L120.58 244.402L120.859 243.441ZM132.59 271.32L131.694 270.877L131.692 270.881L132.59 271.32ZM126.141 278.988L126.714 279.808L126.716 279.806L126.141 278.988ZM116.086 282.492L116.193 283.486L116.195 283.486L116.086 282.492ZM97.957 283V284L97.9641 284L97.957 283ZM72.6172 283H71.6172V284H72.6172V283ZM87.6484 220.945V219.945H86.6484V220.945H87.6484ZM87.6484 238.16H86.6484V239.16H87.6484V238.16ZM108.418 237.906L108.3 236.913L108.3 236.913L108.418 237.906ZM114.766 223.84L114.008 224.492L114.016 224.502L114.024 224.511L114.766 223.84ZM109.129 221.199L109.25 220.207L109.242 220.206L109.129 221.199ZM87.6484 250.551V249.551H86.6484V250.551H87.6484ZM87.6484 270.457H86.6484V271.457H87.6484V270.457ZM111.871 270L111.692 269.016L111.679 269.018L111.666 269.021L111.871 270ZM117.305 267.055L116.559 266.388L116.558 266.389L117.305 267.055ZM117.812 255.02L118.633 254.448L117.812 255.02ZM113.09 251.617L112.759 252.561L112.764 252.563L113.09 251.617ZM72.6172 209.555H102.375V207.555H72.6172V209.555ZM102.375 209.555C108.253 209.555 112.566 209.809 115.354 210.301L115.701 208.332C112.734 207.808 108.278 207.555 102.375 207.555V209.555ZM115.367 210.303C118.143 210.755 120.593 211.72 122.731 213.188L123.863 211.539C121.465 209.892 118.734 208.825 115.688 208.329L115.367 210.303ZM122.737 213.192C124.904 214.658 126.717 216.625 128.172 219.114L129.899 218.105C128.306 215.38 126.294 213.183 123.857 211.535L122.737 213.192ZM128.175 219.119C129.6 221.526 130.32 224.242 130.32 227.293H132.32C132.32 223.912 131.517 220.839 129.896 218.1L128.175 219.119ZM130.32 227.293C130.32 230.587 129.428 233.596 127.639 236.345L129.315 237.436C131.317 234.362 132.32 230.973 132.32 227.293H130.32ZM127.634 236.352C125.879 239.097 123.491 241.153 120.447 242.53L121.272 244.352C124.66 242.819 127.35 240.508 129.319 237.429L127.634 236.352ZM120.58 244.402C124.949 245.673 128.241 247.819 130.526 250.803L132.114 249.587C129.525 246.207 125.842 243.85 121.139 242.481L120.58 244.402ZM130.526 250.803C132.82 253.798 133.977 257.321 133.977 261.418H135.977C135.977 256.916 134.695 252.957 132.114 249.587L130.526 250.803ZM133.977 261.418C133.977 264.64 133.221 267.79 131.694 270.877L133.486 271.764C135.141 268.418 135.977 264.966 135.977 261.418H133.977ZM131.692 270.881C130.204 273.921 128.162 276.343 125.565 278.17L126.716 279.806C129.604 277.774 131.861 275.085 133.488 271.76L131.692 270.881ZM125.567 278.169C123.023 279.95 119.84 281.073 115.976 281.498L116.195 283.486C120.321 283.032 123.842 281.818 126.714 279.808L125.567 278.169ZM115.978 281.498C113.534 281.762 107.548 281.932 97.95 282L97.9641 284C107.528 283.932 113.627 283.764 116.193 283.486L115.978 281.498ZM97.957 282H72.6172V284H97.957V282ZM73.6172 283V208.555H71.6172V283H73.6172ZM86.6484 220.945V238.16H88.6484V220.945H86.6484ZM87.6484 239.16H97.5V237.16H87.6484V239.16ZM97.5 239.16C103.334 239.16 107.042 239.077 108.536 238.899L108.3 236.913C106.95 237.074 103.38 237.16 97.5 237.16V239.16ZM108.536 238.899C111.273 238.575 113.516 237.625 115.168 235.973L113.754 234.559C112.494 235.818 110.709 236.628 108.3 236.913L108.536 238.899ZM115.168 235.973C116.872 234.269 117.695 232.054 117.695 229.426H115.695C115.695 231.605 115.029 233.283 113.754 234.559L115.168 235.973ZM117.695 229.426C117.695 226.928 116.992 224.81 115.507 223.169L114.024 224.511C115.112 225.713 115.695 227.319 115.695 229.426H117.695ZM115.524 223.188C114.063 221.49 111.923 220.532 109.25 220.207L109.008 222.192C111.346 222.476 112.963 223.278 114.008 224.492L115.524 223.188ZM109.242 220.206C107.682 220.028 103.329 219.945 96.2812 219.945V221.945C103.384 221.945 107.597 222.032 109.016 222.193L109.242 220.206ZM96.2812 219.945H87.6484V221.945H96.2812V219.945ZM86.6484 250.551V270.457H88.6484V250.551H86.6484ZM87.6484 271.457H101.562V269.457H87.6484V271.457ZM101.562 271.457C106.947 271.457 110.498 271.309 112.076 270.979L111.666 269.021C110.333 269.3 107.012 269.457 101.562 269.457V271.457ZM112.05 270.984C114.483 270.541 116.501 269.459 118.051 267.72L116.558 266.389C115.332 267.765 113.728 268.646 111.692 269.016L112.05 270.984ZM118.05 267.721C119.672 265.906 120.438 263.533 120.438 260.707H118.438C118.438 263.163 117.781 265.021 116.559 266.388L118.05 267.721ZM120.438 260.707C120.438 258.306 119.853 256.202 118.633 254.448L116.992 255.591C117.939 256.952 118.438 258.64 118.438 260.707H120.438ZM118.633 254.448C117.411 252.691 115.65 251.441 113.415 250.672L112.764 252.563C114.66 253.215 116.047 254.233 116.992 255.591L118.633 254.448ZM113.42 250.673C112.277 250.273 110.552 250 108.32 249.821C106.066 249.64 103.219 249.551 99.7852 249.551V251.551C103.19 251.551 105.98 251.639 108.16 251.814C110.363 251.991 111.872 252.25 112.759 252.561L113.42 250.673ZM99.7852 249.551H87.6484V251.551H99.7852V249.551Z" fill="white"/>
<path d="M289.699 283H273.348L266.848 266.09H237.09L230.945 283H215L243.996 208.555H259.891L289.699 283ZM262.023 253.547L251.766 225.922L241.711 253.547H262.023Z" fill="white"/>
<path d="M289.699 283V284H291.177L290.628 282.628L289.699 283ZM273.348 283L272.414 283.359L272.661 284H273.348V283ZM266.848 266.09L267.781 265.731L267.535 265.09H266.848V266.09ZM237.09 266.09V265.09H236.389L236.15 265.748L237.09 266.09ZM230.945 283V284H231.646L231.885 283.342L230.945 283ZM215 283L214.068 282.637L213.537 284H215V283ZM243.996 208.555V207.555H243.312L243.064 208.192L243.996 208.555ZM259.891 208.555L260.819 208.183L260.567 207.555H259.891V208.555ZM262.023 253.547V254.547H263.461L262.961 253.199L262.023 253.547ZM251.766 225.922L252.703 225.574L251.756 223.024L250.826 225.58L251.766 225.922ZM241.711 253.547L240.771 253.205L240.283 254.547H241.711V253.547ZM289.699 282H273.348V284H289.699V282ZM274.281 282.641L267.781 265.731L265.914 266.449L272.414 283.359L274.281 282.641ZM266.848 265.09H237.09V267.09H266.848V265.09ZM236.15 265.748L230.005 282.658L231.885 283.342L238.03 266.431L236.15 265.748ZM230.945 282H215V284H230.945V282ZM215.932 283.363L244.928 208.918L243.064 208.192L214.068 282.637L215.932 283.363ZM243.996 209.555H259.891V207.555H243.996V209.555ZM258.962 208.926L288.771 283.372L290.628 282.628L260.819 208.183L258.962 208.926ZM262.961 253.199L252.703 225.574L250.828 226.27L261.086 253.895L262.961 253.199ZM250.826 225.58L240.771 253.205L242.651 253.889L252.705 226.264L250.826 225.58ZM241.711 254.547H262.023V252.547H241.711V254.547Z" fill="white"/>
<path d="M429.617 68.5547H459.375C465.266 68.5547 469.65 68.8086 472.527 69.3164C475.439 69.7904 478.029 70.806 480.297 72.3633C482.599 73.9206 484.512 76.0026 486.035 78.6094C487.559 81.1823 488.32 84.0768 488.32 87.293C488.32 90.7799 487.372 93.9792 485.477 96.8906C483.615 99.8021 481.076 101.986 477.859 103.441C482.396 104.762 485.883 107.013 488.32 110.195C490.758 113.378 491.977 117.118 491.977 121.418C491.977 124.803 491.181 128.104 489.59 131.32C488.033 134.503 485.883 137.059 483.141 138.988C480.432 140.884 477.081 142.052 473.086 142.492C470.581 142.763 464.538 142.932 454.957 143H429.617V68.5547ZM444.648 80.9453V98.1602H454.5C460.357 98.1602 463.996 98.0755 465.418 97.9062C467.991 97.6016 470.005 96.7214 471.461 95.2656C472.951 93.776 473.695 91.8294 473.695 89.4258C473.695 87.1237 473.052 85.2617 471.766 83.8398C470.513 82.3841 468.634 81.5039 466.129 81.1992C464.639 81.0299 460.357 80.9453 453.281 80.9453H444.648ZM444.648 110.551V130.457H458.562C463.979 130.457 467.415 130.305 468.871 130C471.105 129.594 472.917 128.612 474.305 127.055C475.727 125.464 476.438 123.348 476.438 120.707C476.438 118.473 475.896 116.577 474.812 115.02C473.729 113.462 472.155 112.328 470.09 111.617C468.059 110.906 463.624 110.551 456.785 110.551H444.648Z" fill="white"/>
<path d="M429.617 68.5547V67.5547H428.617V68.5547H429.617ZM472.527 69.3164L472.354 70.3013L472.367 70.3034L472.527 69.3164ZM480.297 72.3633L479.731 73.1877L479.737 73.1916L480.297 72.3633ZM486.035 78.6094L485.172 79.114L485.175 79.1189L486.035 78.6094ZM485.477 96.8906L484.639 96.3449L484.634 96.3518L485.477 96.8906ZM477.859 103.441L477.447 102.53L474.983 103.646L477.58 104.402L477.859 103.441ZM489.59 131.32L488.694 130.877L488.692 130.881L489.59 131.32ZM483.141 138.988L483.714 139.808L483.716 139.806L483.141 138.988ZM473.086 142.492L473.193 143.486L473.195 143.486L473.086 142.492ZM454.957 143V144L454.964 144L454.957 143ZM429.617 143H428.617V144H429.617V143ZM444.648 80.9453V79.9453H443.648V80.9453H444.648ZM444.648 98.1602H443.648V99.1602H444.648V98.1602ZM465.418 97.9062L465.3 96.9132L465.3 96.9133L465.418 97.9062ZM471.766 83.8398L471.008 84.4921L471.016 84.5015L471.024 84.5108L471.766 83.8398ZM466.129 81.1992L466.25 80.2065L466.242 80.2056L466.129 81.1992ZM444.648 110.551V109.551H443.648V110.551H444.648ZM444.648 130.457H443.648V131.457H444.648V130.457ZM468.871 130L468.692 129.016L468.679 129.018L468.666 129.021L468.871 130ZM474.305 127.055L473.559 126.388L473.558 126.389L474.305 127.055ZM474.812 115.02L475.633 114.448L474.812 115.02ZM470.09 111.617L469.759 112.561L469.764 112.563L470.09 111.617ZM429.617 69.5547H459.375V67.5547H429.617V69.5547ZM459.375 69.5547C465.253 69.5547 469.566 69.8092 472.354 70.3012L472.701 68.3316C469.734 67.808 465.278 67.5547 459.375 67.5547V69.5547ZM472.367 70.3034C475.143 70.7554 477.593 71.7197 479.731 73.1877L480.863 71.5389C478.465 69.8923 475.734 68.8253 472.688 68.3294L472.367 70.3034ZM479.737 73.1916C481.904 74.6579 483.717 76.6251 485.172 79.1139L486.899 78.1048C485.306 75.3801 483.294 73.1832 480.857 71.535L479.737 73.1916ZM485.175 79.1189C486.6 81.5259 487.32 84.2421 487.32 87.293H489.32C489.32 83.9116 488.517 80.8387 486.896 78.0999L485.175 79.1189ZM487.32 87.293C487.32 90.587 486.428 93.5965 484.639 96.345L486.315 97.4363C488.317 94.3619 489.32 90.9729 489.32 87.293H487.32ZM484.634 96.3518C482.879 99.0965 480.491 101.153 477.447 102.53L478.272 104.352C481.66 102.819 484.35 100.508 486.319 97.4294L484.634 96.3518ZM477.58 104.402C481.949 105.673 485.241 107.819 487.526 110.803L489.114 109.587C486.525 106.207 482.842 103.85 478.139 102.481L477.58 104.402ZM487.526 110.803C489.82 113.798 490.977 117.321 490.977 121.418H492.977C492.977 116.916 491.695 112.957 489.114 109.587L487.526 110.803ZM490.977 121.418C490.977 124.64 490.221 127.79 488.694 130.877L490.486 131.764C492.141 128.418 492.977 124.966 492.977 121.418H490.977ZM488.692 130.881C487.204 133.921 485.162 136.343 482.565 138.17L483.716 139.806C486.604 137.774 488.861 135.085 490.488 131.76L488.692 130.881ZM482.567 138.169C480.023 139.95 476.84 141.073 472.976 141.498L473.195 143.486C477.321 143.032 480.842 141.818 483.714 139.808L482.567 138.169ZM472.978 141.498C470.534 141.762 464.548 141.932 454.95 142L454.964 144C464.528 143.932 470.627 143.764 473.193 143.486L472.978 141.498ZM454.957 142H429.617V144H454.957V142ZM430.617 143V68.5547H428.617V143H430.617ZM443.648 80.9453V98.1602H445.648V80.9453H443.648ZM444.648 99.1602H454.5V97.1602H444.648V99.1602ZM454.5 99.1602C460.334 99.1602 464.042 99.0771 465.536 98.8992L465.3 96.9133C463.95 97.0739 460.38 97.1602 454.5 97.1602V99.1602ZM465.536 98.8993C468.273 98.5752 470.516 97.6246 472.168 95.9727L470.754 94.5585C469.494 95.8181 467.709 96.628 465.3 96.9132L465.536 98.8993ZM472.168 95.9727C473.872 94.2687 474.695 92.054 474.695 89.4258H472.695C472.695 91.6049 472.029 93.2834 470.754 94.5585L472.168 95.9727ZM474.695 89.4258C474.695 86.9282 473.992 84.8102 472.507 83.1689L471.024 84.5108C472.112 85.7133 472.695 87.3192 472.695 89.4258H474.695ZM472.524 83.1876C471.063 81.4899 468.923 80.5316 466.25 80.2065L466.008 82.1919C468.346 82.4762 469.963 83.2784 471.008 84.4921L472.524 83.1876ZM466.242 80.2056C464.682 80.0283 460.329 79.9453 453.281 79.9453V81.9453C460.384 81.9453 464.597 82.0316 466.016 82.1928L466.242 80.2056ZM453.281 79.9453H444.648V81.9453H453.281V79.9453ZM443.648 110.551V130.457H445.648V110.551H443.648ZM444.648 131.457H458.562V129.457H444.648V131.457ZM458.562 131.457C463.947 131.457 467.498 131.309 469.076 130.979L468.666 129.021C467.333 129.3 464.012 129.457 458.562 129.457V131.457ZM469.05 130.984C471.483 130.541 473.501 129.459 475.051 127.72L473.558 126.389C472.332 127.765 470.728 128.646 468.692 129.016L469.05 130.984ZM475.05 127.721C476.672 125.906 477.438 123.533 477.438 120.707H475.438C475.438 123.163 474.781 125.021 473.559 126.388L475.05 127.721ZM477.438 120.707C477.438 118.306 476.853 116.202 475.633 114.448L473.992 115.591C474.939 116.952 475.438 118.64 475.438 120.707H477.438ZM475.633 114.448C474.411 112.691 472.65 111.441 470.415 110.672L469.764 112.563C471.66 113.215 473.047 114.233 473.992 115.591L475.633 114.448ZM470.42 110.673C469.277 110.273 467.552 110 465.32 109.821C463.066 109.64 460.219 109.551 456.785 109.551V111.551C460.19 111.551 462.98 111.639 465.16 111.814C467.363 111.991 468.872 112.25 469.759 112.561L470.42 110.673ZM456.785 109.551H444.648V111.551H456.785V109.551Z" fill="white"/>
<path d="M646.699 143H630.348L623.848 126.09H594.09L587.945 143H572L600.996 68.5547H616.891L646.699 143ZM619.023 113.547L608.766 85.9219L598.711 113.547H619.023Z" fill="white"/>
<path d="M646.699 143V144H648.177L647.628 142.628L646.699 143ZM630.348 143L629.414 143.359L629.661 144H630.348V143ZM623.848 126.09L624.781 125.731L624.535 125.09H623.848V126.09ZM594.09 126.09V125.09H593.389L593.15 125.748L594.09 126.09ZM587.945 143V144H588.646L588.885 143.342L587.945 143ZM572 143L571.068 142.637L570.537 144H572V143ZM600.996 68.5547V67.5547H600.312L600.064 68.1918L600.996 68.5547ZM616.891 68.5547L617.819 68.183L617.567 67.5547H616.891V68.5547ZM619.023 113.547V114.547H620.461L619.961 113.199L619.023 113.547ZM608.766 85.9219L609.703 85.5738L608.756 83.0239L607.826 85.5799L608.766 85.9219ZM598.711 113.547L597.771 113.205L597.283 114.547H598.711V113.547ZM646.699 142H630.348V144H646.699V142ZM631.281 142.641L624.781 125.731L622.914 126.449L629.414 143.359L631.281 142.641ZM623.848 125.09H594.09V127.09H623.848V125.09ZM593.15 125.748L587.005 142.658L588.885 143.342L595.03 126.431L593.15 125.748ZM587.945 142H572V144H587.945V142ZM572.932 143.363L601.928 68.9176L600.064 68.1918L571.068 142.637L572.932 143.363ZM600.996 69.5547H616.891V67.5547H600.996V69.5547ZM615.962 68.9264L645.771 143.372L647.628 142.628L617.819 68.183L615.962 68.9264ZM619.961 113.199L609.703 85.5738L607.828 86.27L618.086 113.895L619.961 113.199ZM607.826 85.5799L597.771 113.205L599.651 113.889L609.705 86.2639L607.826 85.5799ZM598.711 114.547H619.023V112.547H598.711V114.547Z" fill="white"/>
<path d="M429.719 283V208.555H444.344L474.812 258.27V208.555H488.777V283H473.695L443.684 234.453V283H429.719Z" fill="white"/>
<path d="M429.719 283H428.719V284H429.719V283ZM429.719 208.555V207.555H428.719V208.555H429.719ZM444.344 208.555L445.196 208.032L444.904 207.555H444.344V208.555ZM474.812 258.27L473.96 258.792L475.812 261.815V258.27H474.812ZM474.812 208.555V207.555H473.812V208.555H474.812ZM488.777 208.555H489.777V207.555H488.777V208.555ZM488.777 283V284H489.777V283H488.777ZM473.695 283L472.845 283.526L473.138 284H473.695V283ZM443.684 234.453L444.534 233.927L442.684 230.934V234.453H443.684ZM443.684 283V284H444.684V283H443.684ZM430.719 283V208.555H428.719V283H430.719ZM429.719 209.555H444.344V207.555H429.719V209.555ZM443.491 209.077L473.96 258.792L475.665 257.747L445.196 208.032L443.491 209.077ZM475.812 258.27V208.555H473.812V258.27H475.812ZM474.812 209.555H488.777V207.555H474.812V209.555ZM487.777 208.555V283H489.777V208.555H487.777ZM488.777 282H473.695V284H488.777V282ZM474.546 282.474L444.534 233.927L442.833 234.979L472.845 283.526L474.546 282.474ZM442.684 234.453V283H444.684V234.453H442.684ZM443.684 282H429.719V284H443.684V282Z" fill="white"/>
<path d="M579.77 283V208.555H594.801V241.613L625.168 208.555H645.379L617.348 237.551L646.902 283H627.453L606.988 248.062L594.801 260.504V283H579.77Z" fill="white"/>
<path d="M579.77 283H578.77V284H579.77V283ZM579.77 208.555V207.555H578.77V208.555H579.77ZM594.801 208.555H595.801V207.555H594.801V208.555ZM594.801 241.613H593.801V244.18L595.537 242.29L594.801 241.613ZM625.168 208.555V207.555H624.729L624.432 207.878L625.168 208.555ZM645.379 208.555L646.098 209.25L647.737 207.555H645.379V208.555ZM617.348 237.551L616.629 236.856L616.075 237.428L616.509 238.096L617.348 237.551ZM646.902 283V284H648.745L647.741 282.455L646.902 283ZM627.453 283L626.59 283.505L626.88 284H627.453V283ZM606.988 248.062L607.851 247.557L607.19 246.428L606.274 247.363L606.988 248.062ZM594.801 260.504L594.086 259.804L593.801 260.096V260.504H594.801ZM594.801 283V284H595.801V283H594.801ZM580.77 283V208.555H578.77V283H580.77ZM579.77 209.555H594.801V207.555H579.77V209.555ZM593.801 208.555V241.613H595.801V208.555H593.801ZM595.537 242.29L625.904 209.231L624.432 207.878L594.064 240.937L595.537 242.29ZM625.168 209.555H645.379V207.555H625.168V209.555ZM644.66 207.86L616.629 236.856L618.067 238.246L646.098 209.25L644.66 207.86ZM616.509 238.096L646.064 283.545L647.741 282.455L618.186 237.006L616.509 238.096ZM646.902 282H627.453V284H646.902V282ZM628.316 282.495L607.851 247.557L606.125 248.568L626.59 283.505L628.316 282.495ZM606.274 247.363L594.086 259.804L595.515 261.204L607.703 248.762L606.274 247.363ZM593.801 260.504V283H595.801V260.504H593.801ZM594.801 282H579.77V284H594.801V282Z" fill="white"/>
</svg>
