<svg xmlns="http://www.w3.org/2000/svg" width="27" height="24" viewBox="0 0 27 24" fill="none">
  <path d="M6.5 9.25H5.4C3.85986 9.25 3.08978 9.25 2.50153 9.54975C1.98407 9.81334 1.56338 10.2341 1.29974 10.7515C1 11.3397 1 12.1099 1 13.65V18.6C1 20.1401 1 20.9103 1.29974 21.4985C1.56338 22.0159 1.98407 22.4367 2.50153 22.7003C3.08978 23 3.85986 23 5.4 23H21.35C22.8901 23 23.6603 23 24.2485 22.7003C24.7659 22.4367 25.1867 22.0159 25.4502 21.4985C25.75 20.9103 25.75 20.1401 25.75 18.6V13.65C25.75 12.1099 25.75 11.3397 25.4502 10.7515C25.1867 10.2341 24.7659 9.81334 24.2485 9.54975C23.6603 9.25 22.8901 9.25 21.35 9.25H20.25M13.375 1V17.5M13.375 1L9.25 5.125M13.375 1L17.5 5.125" stroke="#221C35"/>
</svg>