<svg xmlns="http://www.w3.org/2000/svg" width="24" height="28" viewBox="0 0 24 28" fill="none">
  <path d="M3.48335 25.1316L2.89271 24.5792C1.54208 23.3163 0.734943 21.6782 0.620238 19.9675C0.500859 18.185 1.14979 16.4391 2.44778 15.051L13.9744 2.74875C16.5502 0.00823631 20.0194 -0.478308 22.2293 1.58818L22.2385 1.59678L22.4778 1.8221C23.6001 2.87687 24.1171 4.33832 23.9327 5.93665C23.7649 7.39079 23.022 8.88365 21.8409 10.1404L10.9641 21.7138C10.2583 22.4646 9.36667 22.956 8.45307 23.0973C7.44814 23.2527 6.51007 22.9782 5.81043 22.3239C5.80859 22.3222 5.80658 22.3203 5.80475 22.3186C5.1202 21.675 4.7439 20.7203 4.77229 19.6983C4.80017 18.69 5.2055 17.72 5.91316 16.9669L14.6068 7.71643C14.9451 7.35659 15.5107 7.3386 15.8713 7.6758L15.8729 7.67736C16.2334 8.01602 16.251 8.58301 15.9122 8.94335L7.21854 18.1938C6.81171 18.6269 6.5789 19.1788 6.56302 19.748C6.54889 20.2588 6.71966 20.7199 7.03165 21.0129L7.03399 21.0151C7.40463 21.3617 7.86112 21.3762 8.17913 21.327C8.6998 21.2463 9.22515 20.9479 9.65856 20.4868L20.5354 8.91361C21.4544 7.93547 22.029 6.80532 22.1529 5.73142C22.2362 5.00867 22.1473 3.97008 21.2501 3.12703L21.0111 2.90169C21.0091 2.89982 21.0071 2.89794 21.0051 2.89606C20.1099 2.05893 19.0711 2.03515 18.3565 2.16292C17.2923 2.35326 16.2 2.99667 15.2809 3.97482L3.75566 16.2753C1.83127 18.3332 1.98275 21.2757 4.11628 23.2707L4.70693 23.823C6.84062 25.8183 9.78629 25.7719 11.7113 23.7133L21.3154 13.4425C21.6533 13.0812 22.2204 13.0622 22.5816 13.4C22.9429 13.7379 22.9619 14.305 22.6241 14.6662L13.02 24.937C11.722 26.3251 10.0235 27.0896 8.23739 27.0902C6.52266 27.0902 4.83432 26.3948 3.48335 25.1316Z" fill="#323232"/>
</svg>