<svg width="98" height="84" viewBox="0 0 98 84" fill="none" xmlns="http://www.w3.org/2000/svg">
<path d="M93.8632 15.1914H3.54106C1.58484 15.1914 0 16.675 0 18.5045V80.6868C0 82.5163 1.58484 83.9999 3.54106 83.9999H93.8632C95.8189 83.9999 97.4043 82.5163 97.4043 80.6868V18.5045C97.4043 16.6745 95.8189 15.1914 93.8632 15.1914Z" fill="black"/>
<path d="M85.5439 20.5532H10.9663C9.35099 20.5532 8.0426 21.7864 8.0426 23.307V74.991C8.0426 76.5115 9.35152 77.7447 10.9663 77.7447H85.5439C87.1587 77.7447 88.4681 76.5115 88.4681 74.991V23.307C88.4681 21.7859 87.1587 20.5532 85.5439 20.5532Z" fill="white"/>
<path d="M80.4255 46.7362C80.4255 47.8711 79.6768 48.7915 78.753 48.7915H54.3959C53.4721 48.7915 52.7234 47.8716 52.7234 46.7362C52.7234 45.6014 53.4721 44.6809 54.3959 44.6809H78.753C79.6768 44.6809 80.4255 45.6014 80.4255 46.7362ZM80.4255 63.1788C80.4255 64.3136 79.6768 65.2341 78.753 65.2341H54.3959C53.4721 65.2341 52.7234 64.3142 52.7234 63.1788C52.7234 62.0439 53.4721 61.1235 54.3959 61.1235H78.753C79.6768 61.1235 80.4255 62.0434 80.4255 63.1788Z" fill="#00E2D6"/>
<path d="M42.1753 32.1702H17.697C17.4857 32.1697 17.2764 32.2117 17.0811 32.2936C16.8858 32.3756 16.7082 32.4959 16.5585 32.6477C16.4088 32.7996 16.29 32.9799 16.2088 33.1785C16.1275 33.3771 16.0855 33.5901 16.0851 33.8052V64.4925C16.0854 64.7077 16.1274 64.9207 16.2086 65.1193C16.2898 65.318 16.4087 65.4984 16.5584 65.6502C16.708 65.8021 16.8856 65.9224 17.081 66.0043C17.2764 66.0862 17.4857 66.1281 17.697 66.1276H42.1753C42.3866 66.128 42.5959 66.0861 42.7912 66.0041C42.9865 65.9222 43.1641 65.8019 43.3138 65.6501C43.4635 65.4982 43.5823 65.3179 43.6635 65.1193C43.7448 64.9206 43.7868 64.7077 43.7872 64.4925V33.8052C43.7862 33.3708 43.6159 32.9545 43.3136 32.6479C43.0114 32.3413 42.6019 32.1694 42.1753 32.1702Z" fill="#EFEFEF"/>
<path d="M32.6754 62.5306L32.0936 62.5295L31.1756 62.5349L18.7674 62.5129L18.7685 61.9104C18.7685 61.9104 18.5047 58.5462 23.4215 57.694C23.4215 57.694 27.164 57.1919 27.4283 56.155C27.4283 56.155 27.5711 56.0401 27.4677 54.8356C27.2477 52.271 25.5847 51.0607 24.9129 50.0796C24.2415 49.0975 24.1872 47.9666 24.1872 47.9666C24.1877 47.6836 24.3055 47.5799 24.5015 47.399C24.7429 47.1745 24.671 46.9361 24.6252 46.6832C24.4515 45.7231 24.4387 44.1809 24.607 43.2154C24.6465 42.0657 25.6961 41.1437 25.6961 41.1437C25.8932 40.9762 26.0904 40.7914 26.2289 40.5697C26.2673 40.5079 26.303 40.4419 26.3238 40.3715C26.4037 40.1073 26.1367 39.9124 26.1906 39.6305C26.2396 39.377 26.6712 39.3652 26.9322 39.3518C27.5205 39.3217 28.1119 39.2992 28.699 39.3459C33.0932 39.6933 34.5349 41.3263 34.5349 41.3263C34.8765 41.7397 35.1013 42.245 35.2356 42.7632C35.2761 42.9179 35.3102 43.0757 35.3294 43.2352C35.4647 44.0284 35.4626 44.8558 35.4189 45.657C35.3976 46.0394 35.3533 46.4158 35.2963 46.7938C35.267 46.9914 35.2819 47.1756 35.413 47.334C35.5222 47.4666 35.6475 47.5595 35.7007 47.7335C35.7263 47.8146 35.7327 47.9027 35.7327 47.987C35.7327 47.987 35.6741 49.1184 34.999 50.0973C34.3239 51.0768 32.6568 52.2807 32.4277 54.8442C32.32 56.0487 32.4628 56.1641 32.4628 56.1641C32.7228 57.2021 36.4637 57.7176 36.4637 57.7176C41.4322 58.6557 41.1019 61.9506 41.1019 61.9506L41.1008 62.5531L37.8288 62.5472L38.344 62.5408L37.9039 62.5402L36.9912 62.5381L32.6754 62.5306Z" fill="#00E2D6"/>
<path d="M39.3191 9.82983H57.1914V19.6596H39.3191V9.82983Z" fill="#00E2D6"/>
<path d="M43.7872 0H53.617V12.5106H43.7872V0Z" fill="black"/>
</svg>
