<svg width="26" height="26" viewBox="0 0 26 26" fill="none" xmlns="http://www.w3.org/2000/svg">
<g clip-path="url(#clip0_2703_29507)">
<path d="M22.1965 22.1963C17.1241 27.2676 8.87502 27.2676 3.80264 22.1963C-1.26755 17.125 -1.26755 8.87371 3.80264 3.8024C6.33883 1.26728 9.66946 0.000303268 13.0001 0.000303268C16.3308 0.000303268 19.6603 1.26733 22.1965 3.8024C27.2678 8.87366 27.2678 17.125 22.1965 22.1963ZM18.364 9.16742C18.7878 8.74365 18.7878 8.05865 18.364 7.63488C18.1527 7.42353 17.8752 7.3173 17.5977 7.3173C17.3203 7.3173 17.0428 7.42353 16.8315 7.63488L13.0001 11.4674L9.16979 7.636C8.95738 7.42465 8.67988 7.31842 8.4035 7.31842C8.12605 7.31842 7.84856 7.42465 7.63721 7.636C7.21344 8.05976 7.21344 8.74584 7.63721 9.16853L11.4675 12.9999L7.63614 16.8313C7.21237 17.255 7.21237 17.9411 7.63614 18.3638C8.05884 18.7876 8.74491 18.7876 9.16867 18.3638L13 14.5324L16.8314 18.3638C17.2552 18.7876 17.9402 18.7876 18.3639 18.3638C18.7877 17.9411 18.7877 17.255 18.3639 16.8313L14.5326 12.9999L18.364 9.16742Z" fill="black"/>
</g>
<defs>
<clipPath id="clip0_2703_29507">
<rect width="26" height="26" fill="white" transform="matrix(1 0 0 -1 0 26)"/>
</clipPath>
</defs>
</svg>
