<svg width="20" height="20" viewBox="0 0 20 20" fill="none" xmlns="http://www.w3.org/2000/svg">
<path fill-rule="evenodd" clip-rule="evenodd" d="M10 0C4.48438 0 0 4.48438 0 10C0 15.5156 4.48438 20 10 20C15.5156 20 20 15.5156 20 10C20 4.48438 15.5156 0 10 0Z" fill="#4BAE4F"/>
<path fill-rule="evenodd" clip-rule="evenodd" d="M14.836 6.62891C15.0781 6.87109 15.0781 7.26953 14.836 7.51172L8.97658 13.3711C8.85548 13.4922 8.69533 13.5547 8.53517 13.5547C8.37502 13.5547 8.21486 13.4922 8.09377 13.3711L5.16408 10.4414C4.92189 10.1992 4.92189 9.80078 5.16408 9.55859C5.40627 9.31641 5.8047 9.31641 6.04689 9.55859L8.53517 12.0469L13.9531 6.62891C14.1953 6.38281 14.5938 6.38281 14.836 6.62891Z" fill="white"/>
</svg>
