<svg width="22" height="22" viewBox="0 0 22 22" fill="none" xmlns="http://www.w3.org/2000/svg">
<g clip-path="url(#clip0_2689_20688)">
<path d="M2.0855 21.8622C1.54612 21.8936 1.01566 21.7143 0.605978 21.3621C-0.201993 20.5493 -0.201993 19.2366 0.605978 18.4238L18.2979 0.731866C19.1382 -0.0544877 20.4569 -0.0107747 21.2433 0.829586C21.9543 1.58952 21.9958 2.75756 21.3403 3.56594L3.54415 21.3621C3.13975 21.7092 2.61781 21.8881 2.0855 21.8622Z" fill="black"/>
<path d="M19.7566 21.8622C19.21 21.8599 18.686 21.6429 18.2979 21.2579L0.605932 3.56586C-0.142611 2.69173 -0.0408427 1.37622 0.83328 0.627613C1.61346 -0.0405031 2.76406 -0.0405031 3.54417 0.627613L21.3403 18.3196C22.1805 19.1061 22.2239 20.4249 21.4373 21.265C21.4061 21.2985 21.3737 21.3308 21.3403 21.3621C20.9046 21.741 20.3311 21.9221 19.7566 21.8622Z" fill="black"/>
</g>
<defs>
<clipPath id="clip0_2689_20688">
<rect width="22" height="22" fill="white"/>
</clipPath>
</defs>
</svg>
