<svg xmlns="http://www.w3.org/2000/svg" width="25" height="30" viewBox="0 0 25 30" fill="none">
  <path d="M16.3276 10.8691C15.9395 10.8691 15.625 11.1837 15.625 11.5717V24.8504C15.625 25.2382 15.9395 25.5529 16.3276 25.5529C16.7156 25.5529 17.0301 25.2382 17.0301 24.8504V11.5717C17.0301 11.1837 16.7156 10.8691 16.3276 10.8691Z" fill="#323232"/>
  <path d="M8.03753 10.8691C7.64947 10.8691 7.33496 11.1837 7.33496 11.5717V24.8504C7.33496 25.2382 7.64947 25.5529 8.03753 25.5529C8.4256 25.5529 8.74011 25.2382 8.74011 24.8504V11.5717C8.74011 11.1837 8.4256 10.8691 8.03753 10.8691Z" fill="#323232"/>
  <path d="M1.99542 8.93129V26.2412C1.99542 27.2644 2.37059 28.2252 3.02596 28.9146C3.67831 29.6059 4.58617 29.9984 5.53629 30H18.8292C19.7796 29.9984 20.6875 29.6059 21.3395 28.9146C21.9949 28.2252 22.3701 27.2644 22.3701 26.2412V8.93129C23.6729 8.58549 24.517 7.3269 24.3428 5.99008C24.1682 4.65355 23.0296 3.65375 21.6815 3.65348H18.0844V2.77526C18.0885 2.03673 17.7965 1.32757 17.2737 0.805857C16.7508 0.284415 16.0406 -0.00594543 15.3021 9.23125e-05H9.06343C8.3249 -0.00594543 7.61464 0.284415 7.09183 0.805857C6.56902 1.32757 6.27701 2.03673 6.28113 2.77526V3.65348H2.684C1.33594 3.65375 0.197274 4.65355 0.0227286 5.99008C-0.151543 7.3269 0.692644 8.58549 1.99542 8.93129ZM18.8292 28.5949H5.53629C4.33505 28.5949 3.40057 27.5629 3.40057 26.2412V8.99304H20.9649V26.2412C20.9649 27.5629 20.0304 28.5949 18.8292 28.5949ZM7.68627 2.77526C7.68161 2.40943 7.82542 2.05732 8.08504 1.79907C8.34439 1.54082 8.69732 1.39893 9.06343 1.40524H15.3021C15.6682 1.39893 16.0211 1.54082 16.2805 1.79907C16.5401 2.05704 16.6839 2.40943 16.6792 2.77526V3.65348H7.68627V2.77526ZM2.684 5.05862H21.6815C22.3799 5.05862 22.9461 5.6248 22.9461 6.32326C22.9461 7.02172 22.3799 7.58789 21.6815 7.58789H2.684C1.98554 7.58789 1.41937 7.02172 1.41937 6.32326C1.41937 5.6248 1.98554 5.05862 2.684 5.05862Z" fill="#323232"/>
  <path d="M12.183 10.8691C11.795 10.8691 11.4805 11.1837 11.4805 11.5717V24.8504C11.4805 25.2382 11.795 25.5529 12.183 25.5529C12.5711 25.5529 12.8856 25.2382 12.8856 24.8504V11.5717C12.8856 11.1837 12.5711 10.8691 12.183 10.8691Z" fill="#323232"/>
</svg>