<svg xmlns="http://www.w3.org/2000/svg" width="34" height="44" viewBox="0 0 34 44" fill="none">
  <path d="M8.61878 35C7.92448 34.9992 7.25886 34.7217 6.76792 34.2283C6.27698 33.735 6.00081 33.0661 6 32.3684V12.6316C6.00081 11.9339 6.27698 11.265 6.76792 10.7717C7.25886 10.2783 7.92448 10.0008 8.61878 10H18.1753L25.6429 17.5093V32.3684C25.642 33.0661 25.3659 33.735 24.8749 34.2283C24.384 34.7217 23.7184 34.9992 23.0241 35H8.61878Z" fill="#00E2D6"/>
  <path d="M8.56535 24.2222H21.696M8.56535 30.1111H19.5076M19.5076 2H2V42H32.6383V15.3333M19.5076 2H21.696L32.6383 13.1111V15.3333M19.5076 2V10.8889C19.5076 13.1111 21.696 15.3333 23.8845 15.3333H32.6383" stroke="#323232" stroke-width="2.4" stroke-linecap="round" stroke-linejoin="round"/>
</svg>