<svg width="17" height="17" viewBox="0 0 17 17" fill="none" xmlns="http://www.w3.org/2000/svg">
<path d="M10.3803 2.39192L2.41211 10.3601L6.62232 14.5703L14.5905 6.60213L10.3803 2.39192Z" fill="#0073C7"/>
<path d="M16.7244 3.38793L13.6149 0.234387C13.3062 -0.0743515 12.821 -0.0743515 12.5343 0.212334C12.5343 0.212334 12.5343 0.212334 12.5123 0.234387L11.145 1.60166L15.3571 5.83579L16.7244 4.46851C17.0331 4.15978 17.0331 3.67462 16.7244 3.38793Z" fill="#0073C7"/>
<path d="M1.79456 11.2827L0.0523968 15.9579C-0.101972 16.3548 0.0965023 16.7959 0.493452 16.9503C0.669874 17.0164 0.868349 17.0164 1.04477 16.9503L5.71995 15.1861L1.79456 11.2827Z" fill="#0073C7"/>
</svg>
