<svg width="16" height="19" viewBox="0 0 16 19" fill="none" xmlns="http://www.w3.org/2000/svg">
<path d="M7.125 1L8.875 2.69612L8.8232 2.74652M8.8232 2.74652L7.125 4.39998M8.8232 2.74652C8.55326 2.71579 8.27851 2.69999 8 2.69999C4.134 2.69999 1 5.74444 1 9.49996C1 11.6474 2.02469 13.5623 3.625 14.8085M8.875 14.6L7.125 16.2241L7.15099 16.2504M7.15099 16.2504C7.42924 16.2831 7.71265 16.2999 8 16.2999C11.866 16.2999 15 13.2555 15 9.49996C15 7.35255 13.9753 5.43762 12.375 4.19142M7.15099 16.2504L8.875 18" stroke="#89888E" stroke-width="1.4" stroke-linecap="round" stroke-linejoin="round"/>
</svg>
