<svg width="26" height="27" viewBox="0 0 26 27" fill="none" xmlns="http://www.w3.org/2000/svg">
<path fill-rule="evenodd" clip-rule="evenodd" d="M1 19C1 17.8954 1.89543 17 3 17H6C7.10457 17 8 17.8954 8 19V24C8 25.1046 7.10457 26 6 26H3C1.89543 26 1 25.1046 1 24V19ZM6 19.4C6 19.1791 5.82091 19 5.6 19H3.4C3.17909 19 3 19.1791 3 19.4V23.6C3 23.8209 3.17909 24 3.4 24H5.6C5.82091 24 6 23.8209 6 23.6V19.4Z" fill="#221C35" stroke="#00E2D6" stroke-width="0.8"/>
<path fill-rule="evenodd" clip-rule="evenodd" d="M9 2.92308C9 1.86099 9.8954 1 11 1H14C15.1046 1 16 1.86099 16 2.92308V24.0769C16 25.139 15.1046 26 14 26H11C9.8954 26 9 25.139 9 24.0769V2.92308ZM14 3.30769C14 3.09528 13.8209 2.92308 13.6 2.92308H11.4C11.1791 2.92308 11 3.09528 11 3.30769V23.6923C11 23.9047 11.1791 24.0769 11.4 24.0769H13.6C13.8209 24.0769 14 23.9047 14 23.6923V3.30769Z" fill="#221C35" stroke="#00E2D6" stroke-width="0.8"/>
<path fill-rule="evenodd" clip-rule="evenodd" d="M18 10.8889C18 9.84568 18.8954 9 20 9H23C24.1046 9 25 9.84568 25 10.8889V24.1111C25 25.1543 24.1046 26 23 26H20C18.8954 26 18 25.1543 18 24.1111V10.8889ZM23 11.2667C23 11.058 22.8209 10.8889 22.6 10.8889H20.4C20.1791 10.8889 20 11.058 20 11.2667V23.7333C20 23.942 20.1791 24.1111 20.4 24.1111H22.6C22.8209 24.1111 23 23.942 23 23.7333V11.2667Z" fill="#221C35" stroke="#00E2D6" stroke-width="0.8"/>
</svg>
