<svg width="18" height="18" viewBox="0 0 18 18" fill="none" xmlns="http://www.w3.org/2000/svg">
<path d="M7.24554 14.4835C8.85466 14.4835 10.4177 13.9467 11.6872 12.9579L16.4765 17.7472C16.8343 18.0927 17.4044 18.0828 17.7499 17.725C18.087 17.376 18.087 16.8228 17.7499 16.4738L12.9606 11.6845C15.4142 8.52609 14.8428 3.97672 11.6844 1.52317C8.52605 -0.930387 3.97672 -0.359039 1.52317 2.79935C-0.930387 5.95774 -0.359039 10.5071 2.79935 12.9607C4.07089 13.9485 5.63538 14.4843 7.24554 14.4835ZM3.39738 3.39461C5.52268 1.26927 8.96848 1.26923 11.0938 3.39453C13.2192 5.51984 13.2192 8.96563 11.0939 11.091C8.9686 13.2163 5.5228 13.2164 3.39746 11.0911C3.39742 11.091 3.39742 11.091 3.39738 11.091C1.27207 8.98116 1.25955 5.54792 3.36937 3.42262C3.37869 3.41325 3.38802 3.40393 3.39738 3.39461Z" fill="#929292"/>
</svg>
