<svg xmlns="http://www.w3.org/2000/svg" width="14" height="14" viewBox="0 0 14 14" fill="none">
  <g clip-path="url(#clip0_3802_124)">
    <path fill-rule="evenodd" clip-rule="evenodd" d="M7.1275 0C3.50649 0 0.5625 2.94399 0.5625 6.565C0.5625 10.186 3.50649 13.13 7.1275 13.13C10.7485 13.13 13.6925 10.186 13.6925 6.565C13.6925 2.94399 10.7485 0 7.1275 0Z" fill="#4BAE4F"/>
    <path fill-rule="evenodd" clip-rule="evenodd" d="M10.3023 4.35164C10.4613 4.51064 10.4613 4.77221 10.3023 4.93121L6.45565 8.77788C6.37615 8.85738 6.27101 8.89841 6.16587 8.89841C6.06072 8.89841 5.95558 8.85738 5.87608 8.77788L3.95274 6.85454C3.79375 6.69555 3.79375 6.43397 3.95274 6.27498C4.11174 6.11598 4.37331 6.11598 4.53231 6.27498L6.16587 7.90854L9.72276 4.35164C9.88176 4.19008 10.1433 4.19008 10.3023 4.35164Z" fill="white"/>
  </g>
  <defs>
    <clipPath id="clip0_3802_124">
      <rect width="13.13" height="13.13" fill="white" transform="translate(0.5625)"/>
    </clipPath>
  </defs>
</svg>