<svg xmlns="http://www.w3.org/2000/svg" width="14" height="14" viewBox="0 0 14 14" fill="none">
  <path fill-rule="evenodd" clip-rule="evenodd" d="M6.565 0C2.94399 0 0 2.94399 0 6.565C0 10.186 2.94399 13.13 6.565 13.13C10.186 13.13 13.13 10.186 13.13 6.565C13.13 2.94399 10.186 0 6.565 0Z" fill="#FF9E2C"/>
  <path d="M4.86811 5.46141V9.37848M4.86811 5.46141L3.28247 5.46141V9.37848H4.86811M4.86811 5.46141L6.9277 3.08708C7.12313 2.86178 7.43059 2.76493 7.72195 2.83689L7.74078 2.84155C8.27269 2.97295 8.51228 3.58537 8.20819 4.03613L7.24658 5.46141H9.05437C9.55468 5.46141 9.92992 5.91368 9.83181 6.39845L9.35611 8.74869C9.28199 9.1149 8.95661 9.37848 8.57867 9.37848H4.86811" stroke="white" stroke-width="0.7" stroke-linecap="round" stroke-linejoin="round"/>
</svg>