<svg width="14" height="14" viewBox="0 0 14 14" fill="none" xmlns="http://www.w3.org/2000/svg">
<path fill-rule="evenodd" clip-rule="evenodd" d="M6.565 0C2.94399 0 0 2.94399 0 6.565C0 10.186 2.94399 13.13 6.565 13.13C10.186 13.13 13.13 10.186 13.13 6.565C13.13 2.94399 10.186 0 6.565 0Z" fill="#6EDCF5"/>
<path fill-rule="evenodd" clip-rule="evenodd" d="M9.73885 4.52107C9.89785 4.68007 9.89785 4.94164 9.73885 5.10064L5.89217 8.94732C5.81268 9.02682 5.70753 9.06785 5.60239 9.06785C5.49725 9.06785 5.3921 9.02682 5.31261 8.94732L3.38927 7.02398C3.23027 6.86498 3.23027 6.60341 3.38927 6.44441C3.54826 6.28542 3.80984 6.28542 3.96883 6.44441L5.60239 8.07797L9.15929 4.52107C9.31828 4.35951 9.57986 4.35951 9.73885 4.52107Z" fill="white"/>
</svg>
