<svg xmlns="http://www.w3.org/2000/svg" width="14" height="14" viewBox="0 0 14 14" fill="none">
  <path d="M6.59064 0C2.98477 0 0 2.93348 0 6.53936C0 10.1452 2.98477 13.13 6.59064 13.13C10.1965 13.13 13.13 10.1452 13.13 6.53936C13.13 2.93348 10.1965 0 6.59064 0ZM9.8275 8.68811C10.1275 8.98815 10.1275 9.47617 9.8275 9.77647C9.52976 10.0739 9.04175 10.0788 8.73914 9.77647L6.59064 7.6272L4.3906 9.77672C4.09056 10.0768 3.60254 10.0768 3.30225 9.77672C3.00221 9.47668 3.00221 8.98866 3.30225 8.68837L5.45126 6.53936L3.30225 4.39034C3.00221 4.09005 3.00221 3.60203 3.30225 3.30199C3.60254 3.00195 4.09056 3.00195 4.3906 3.30199L6.59064 5.45151L8.73914 3.30199C9.03867 3.00246 9.52669 3.00144 9.8275 3.30199C10.1275 3.60203 10.1275 4.09005 9.8275 4.39034L7.67849 6.53936L9.8275 8.68811Z" fill="#FF6174"/>
</svg>