<svg xmlns="http://www.w3.org/2000/svg" width="14" height="14" viewBox="0 0 14 14" fill="none">
  <path fill-rule="evenodd" clip-rule="evenodd" d="M6.565 0C2.94399 0 0 2.94399 0 6.565C0 10.186 2.94399 13.13 6.565 13.13C10.186 13.13 13.13 10.186 13.13 6.565C13.13 2.94399 10.186 0 6.565 0Z" fill="#0073C7"/>
  <path fill-rule="evenodd" clip-rule="evenodd" d="M6.36204 2.46241V2.88529C6.36204 3.00206 6.4567 3.09673 6.57348 3.09673C6.69025 3.09673 6.78491 3.00206 6.78491 2.88529V2.46241C6.78491 2.34564 6.69025 2.25098 6.57348 2.25098C6.4567 2.25098 6.36204 2.34564 6.36204 2.46241ZM7.1839 7.74383H5.96517C5.6037 7.74383 5.30591 8.0251 5.30591 8.37814V10.1479C5.30591 10.451 5.56054 10.6917 5.86918 10.6917H7.27735C7.58599 10.6917 7.84105 10.451 7.84105 10.1479L7.8425 8.91944C8.725 8.4595 9.32221 7.53582 9.32221 6.48019C9.32221 4.96243 8.09128 3.7315 6.57352 3.7315C5.05548 3.7315 3.82483 4.96228 3.82483 6.48019C3.82483 7.14743 4.06348 7.77789 4.49006 8.27329C4.56626 8.36178 4.69976 8.37176 4.78825 8.29555C4.87673 8.21935 4.88671 8.08585 4.81051 7.99736C4.4494 7.57798 4.24771 7.04518 4.24771 6.48019C4.24771 5.19584 5.28904 4.15438 6.57352 4.15438C7.85773 4.15438 8.89933 5.19598 8.89933 6.48019C8.89933 7.29292 8.4809 8.01328 7.8431 8.42967L7.84316 8.37882C7.84316 8.02519 7.54548 7.74383 7.1839 7.74383ZM7.41997 8.64753L7.42028 8.37856C7.42028 8.26424 7.3171 8.1667 7.1839 8.1667H5.96517C5.83201 8.1667 5.72878 8.26422 5.72878 8.37814V10.1479C5.72878 10.212 5.78894 10.2688 5.86918 10.2688H7.27735C7.35774 10.2688 7.41817 10.2118 7.41817 10.1476L7.41942 9.09652C7.22741 9.15847 7.02593 9.19998 6.81748 9.21833C6.70114 9.22859 6.59853 9.14259 6.5883 9.02628C6.57804 8.90995 6.66404 8.80734 6.78035 8.7971C7.00453 8.77733 7.21917 8.72596 7.41997 8.64753ZM10.1679 6.26829H10.5908C10.7076 6.26829 10.8022 6.36295 10.8022 6.47973C10.8022 6.5965 10.7076 6.69116 10.5908 6.69116H10.1679C10.0511 6.69116 9.95648 6.5965 9.95648 6.47973C9.95648 6.36295 10.0511 6.26829 10.1679 6.26829ZM2.97904 6.26829H2.55616C2.43939 6.26829 2.34473 6.36295 2.34473 6.47973C2.34473 6.5965 2.43939 6.69116 2.55616 6.69116H2.97904C3.09581 6.69116 3.19048 6.5965 3.19048 6.47973C3.19048 6.36295 3.09581 6.26829 2.97904 6.26829ZM3.61337 3.22061L3.91235 3.51958C3.99491 3.60215 3.99491 3.73603 3.91235 3.8186C3.82978 3.90116 3.6959 3.90116 3.61333 3.8186L3.31436 3.51962C3.23179 3.43705 3.23179 3.30318 3.31436 3.22061C3.39693 3.13804 3.5308 3.13804 3.61337 3.22061ZM9.53362 3.8186L9.8326 3.51962C9.91516 3.43705 9.91516 3.30318 9.8326 3.22061C9.75003 3.13804 9.61615 3.13804 9.53358 3.22061L9.23461 3.51958C9.15204 3.60215 9.15204 3.73603 9.23461 3.8186C9.31718 3.90116 9.45106 3.90116 9.53362 3.8186Z" fill="white"/>
</svg>