<svg width="40" height="40" viewBox="0 0 40 40" fill="none" xmlns="http://www.w3.org/2000/svg">
<path d="M12.8125 37.3125L17.1875 32.8125C15.625 32.5 14.1875 31.875 12.875 31L12.8125 37.3125Z" fill="#FFD985"/>
<path d="M27.1875 2.6875L22.8125 7.1875C24.375 7.5 25.8125 8.125 27.125 9L27.1875 2.6875Z" fill="#FFD985"/>
<path d="M7.1875 22.8125L2.6875 27.1875L9 27.125C8.125 25.8125 7.5 24.375 7.1875 22.8125Z" fill="#FFD985"/>
<path d="M32.8125 17.1875L37.3125 12.8125L31 12.875C31.875 14.1875 32.5 15.625 32.8125 17.1875Z" fill="#FFD985"/>
<path d="M9 12.875L2.6875 12.8125L7.1875 17.1875C7.5 15.625 8.125 14.1875 9 12.875Z" fill="#FFD985"/>
<path d="M31 27.125L37.3125 27.1875L32.8125 22.8125C32.5 24.375 31.875 25.8125 31 27.125Z" fill="#FFD985"/>
<path d="M17.1875 7.1875L12.8125 2.6875L12.875 9C14.1875 8.125 15.625 7.5 17.1875 7.1875Z" fill="#FFD985"/>
<path d="M22.8125 32.8125L27.1875 37.3125L27.125 31C25.8125 31.875 24.375 32.5 22.8125 32.8125Z" fill="#FFD985"/>
<path d="M9.25 27.5L6.75 33.3125L12.5625 30.8125C11.25 29.875 10.125 28.75 9.25 27.5Z" fill="#FFD985"/>
<path d="M30.75 12.5L33.25 6.6875L27.4375 9.1875C28.75 10.125 29.875 11.25 30.75 12.5Z" fill="#FFD985"/>
<path d="M6.875 20C6.875 19.1875 6.9375 18.4375 7.125 17.6875L1.25 20L7.125 22.3125C6.9375 21.5625 6.875 20.8125 6.875 20Z" fill="#FFD985"/>
<path d="M38.75 20L32.875 17.6875C33 18.4375 33.125 19.25 33.125 20C33.125 20.8125 33.0625 21.5625 32.875 22.3125L38.75 20Z" fill="#FFD985"/>
<path d="M12.5 9.25L6.6875 6.75L9.1875 12.5625C10.125 11.25 11.25 10.125 12.5 9.25Z" fill="#FFD985"/>
<path d="M27.5 30.75L33.3125 33.25L30.8125 27.4375C29.875 28.75 28.75 29.875 27.5 30.75Z" fill="#FFD985"/>
<path d="M22.3125 7.125L20 1.25L17.6875 7.125C18.4375 7 19.25 6.875 20 6.875C20.8125 6.875 21.5625 6.9375 22.3125 7.125Z" fill="#FFD985"/>
<path d="M17.6875 32.875L20 38.75L22.3125 32.875C21.5625 33.0625 20.8125 33.125 20 33.125C19.1875 33.125 18.4375 33.0625 17.6875 32.875Z" fill="#FFD985"/>
<path d="M20 8.125C13.4375 8.125 8.125 13.4375 8.125 20C8.125 26.5625 13.4375 31.875 20 31.875C26.5625 31.875 31.875 26.5625 31.875 20C31.875 13.4375 26.5625 8.125 20 8.125ZM12.75 19.1875C13.5 17.1875 14.625 16.125 15.6875 16.125C16.75 16.125 17.875 17.125 18.625 19.1875C18.6875 19.375 18.3125 19.75 18.125 19.5625C17.4375 18.8125 16.5625 18.5 15.6875 18.5C14.8125 18.5 13.9375 18.8125 13.25 19.5625C13 19.8125 12.625 19.4375 12.75 19.1875ZM25.4375 23.875C24.4375 25.5 22.5 26.875 20 26.875C17.5 26.875 15.5 25.4375 14.5625 23.875C14.3125 23.4375 14.625 23 15.0625 23.25C18.25 25.5 21.8125 25.5 25 23.25C25.375 23 25.6875 23.5 25.4375 23.875ZM26.8125 19.5625C26.125 18.8125 25.25 18.5 24.375 18.5C23.5 18.5 22.625 18.8125 21.9375 19.5625C21.75 19.75 21.375 19.375 21.4375 19.1875C22.1875 17.1875 23.3125 16.125 24.375 16.125C25.5 16.125 26.5625 17.125 27.3125 19.1875C27.375 19.4375 27 19.8125 26.8125 19.5625Z" fill="#FFD985"/>
</svg>
