<svg width="25" height="25" viewBox="0 0 25 25" fill="none" xmlns="http://www.w3.org/2000/svg">
<path d="M1.9056 8.97097H2.31936V9.38472C2.21436 9.21765 2.07267 9.07597 1.9056 8.97097ZM1.10968 8.77473C0.68395 8.80687 0.31504 9.04256 0.1 9.38472V7.76129H2.31936V8.77097H1.30968H1.20968H1.10968V8.77473ZM2.51935 10.0806V9.98065V8.97097H9.57742V9.98065V10.0806V10.1806V11.1903H2.51935V10.1806V10.0806ZM9.77742 11.1903V10.7766C9.88242 10.9436 10.0241 11.0853 10.1912 11.1903H9.77742ZM10.7871 11.1859C10.2541 11.1383 9.82948 10.7137 9.78187 10.1806H10.7871V11.1859ZM10.9871 11.1859V10.1806H11.9923C11.9447 10.7137 11.5201 11.1383 10.9871 11.1859ZM10.9871 11.3866C11.4128 11.3544 11.7817 11.1187 11.9968 10.7766V14.4161H10.9871H10.8871H10.7871V14.4199C10.3614 14.452 9.99246 14.6877 9.77742 15.0299V11.3903H10.7871H10.8871H10.9871V11.3866ZM9.78187 15.6258C9.82948 15.0928 10.2541 14.6682 10.7871 14.6206V15.6258H9.78187ZM9.78187 15.8258H10.7871V16.831C10.2541 16.7834 9.82948 16.3589 9.78187 15.8258ZM10.8871 17.0355H10.9871H11.9968V22.4806H10.9871H10.8871H10.7871H9.77742V16.4217C9.99246 16.7639 10.3614 16.9996 10.7871 17.0317V17.0355H10.8871ZM7.76129 22.6806H9.57742V23.6903V23.7903V23.8903H9.58118C9.61333 24.316 9.84902 24.685 10.1912 24.9H7.76129V22.6806ZM9.77742 22.6806H10.1912C10.0241 22.7856 9.88242 22.9273 9.77742 23.0944V22.6806ZM10.7871 24.8956C10.2541 24.8479 9.82948 24.4234 9.78187 23.8903H10.7871V24.8956ZM10.9871 24.8956V23.8903H11.9923C11.9447 24.4234 11.5201 24.8479 10.9871 24.8956ZM12.1968 23.7903V23.6903V22.6806H17.2387V24.9H11.583C11.9252 24.685 12.1609 24.316 12.193 23.8903H12.1968V23.7903ZM11.583 22.6806H11.9968V23.0944C11.8918 22.9273 11.7501 22.7856 11.583 22.6806ZM22.6806 17.2387V17.0355H23.6903H23.7903H23.8903V17.0317C24.316 16.9996 24.685 16.7639 24.9 16.4217V17.2387H22.6806ZM24.8956 15.8258C24.8479 16.3589 24.4234 16.7834 23.8903 16.831V15.8258H24.8956ZM24.8956 15.6258H23.8903V14.6206C24.4234 14.6682 24.8479 15.0928 24.8956 15.6258ZM23.7903 14.4161H23.6903H22.6806V7.76129H24.9V15.0299C24.685 14.6877 24.316 14.452 23.8903 14.4199V14.4161H23.7903ZM11.583 14.6161H11.9968V15.0299C11.8918 14.8628 11.7501 14.7211 11.583 14.6161ZM10.9871 14.6206C11.5201 14.6682 11.9447 15.0928 11.9923 15.6258H10.9871V14.6206ZM11.9968 16.8355H11.583C11.7501 16.7305 11.8918 16.5888 11.9968 16.4217V16.8355ZM23.0944 16.8355H22.6806V16.4217C22.7856 16.5888 22.9273 16.7305 23.0944 16.8355ZM22.6851 15.8258H23.6903V16.831C23.1573 16.7834 22.7327 16.3589 22.6851 15.8258ZM22.6806 14.6161H23.0944C22.9273 14.7211 22.7856 14.8628 22.6806 15.0299V14.6161ZM12.1968 15.6258V14.6161H22.4806V15.6258V15.7258V15.8258V16.8355H12.1968V15.8258V15.7258V15.6258ZM23.6903 15.6258H22.6851C22.7327 15.0928 23.1573 14.6682 23.6903 14.6206V15.6258ZM10.9871 15.8258H11.9923C11.9447 16.3589 11.5201 16.7834 10.9871 16.831V15.8258ZM24.8994 7.56129H22.6797C22.627 4.69042 20.3095 2.37298 17.4387 2.32027V0.100648C21.5354 0.153745 24.8463 3.46468 24.8994 7.56129ZM17.2387 0.1V2.31936H12.1968V1.30968V1.20968V1.10968H12.193C12.1609 0.68395 11.9252 0.31504 11.583 0.1H17.2387ZM10.9871 0.104445C11.5201 0.152059 11.9447 0.576621 11.9923 1.10968H10.9871V0.104445ZM10.7871 0.104445V1.10968H9.78187C9.82948 0.576621 10.2541 0.152059 10.7871 0.104445ZM10.1912 0.1C9.84901 0.31504 9.61333 0.68395 9.58118 1.10968H9.57742V1.20968V1.30968V2.31936H7.76129V0.1H10.1912ZM9.77742 9.38473V8.97097H10.1912C10.0241 9.07597 9.88242 9.21766 9.77742 9.38473ZM10.7871 8.97541V9.98065H9.78187C9.82948 9.4476 10.2541 9.02303 10.7871 8.97541ZM10.8871 8.77097H10.7871H9.77742V2.51935H10.7871H10.8871H10.9871H11.9968V9.38473C11.7817 9.04256 11.4128 8.80687 10.9871 8.77473V8.77097H10.8871ZM11.583 2.31936C11.7501 2.21436 11.8918 2.07267 11.9968 1.9056V2.31936H11.583ZM10.7871 1.30968V2.31491C10.2541 2.2673 9.82948 1.84273 9.78187 1.30968H10.7871ZM9.77742 1.9056C9.88242 2.07267 10.0241 2.21436 10.1912 2.31936H9.77742V1.9056ZM10.9871 9.98065V8.97541C11.5201 9.02303 11.9447 9.4476 11.9923 9.98065H10.9871ZM7.56129 0.100648V2.32027C4.69042 2.37298 2.37298 4.69042 2.32027 7.56129H0.100648C0.153746 3.46468 3.46468 0.153746 7.56129 0.100648ZM10.9871 2.31491V1.30968H11.9923C11.9447 1.84273 11.5201 2.2673 10.9871 2.31491ZM22.6797 17.4387H24.8994C24.8463 21.5354 21.5354 24.8463 17.4387 24.8994V22.6797C20.3095 22.627 22.627 20.3095 22.6797 17.4387ZM10.9871 22.6851C11.5201 22.7327 11.9447 23.1573 11.9923 23.6903H10.9871V22.6851ZM10.7871 22.6851V23.6903H9.78187C9.82948 23.1573 10.2541 22.7327 10.7871 22.6851ZM7.56129 22.6797V24.8994C3.46468 24.8463 0.153745 21.5354 0.100648 17.4387H2.32027C2.37298 20.3095 4.69042 22.627 7.56129 22.6797ZM2.31936 17.2387H0.1V10.7766C0.31504 11.1187 0.68395 11.3544 1.10968 11.3866V11.3903H1.20968H1.30968H2.31936V17.2387ZM2.31936 11.1903H1.9056C2.07267 11.0853 2.21436 10.9436 2.31936 10.7766V11.1903ZM1.30968 10.1806H2.31491C2.2673 10.7137 1.84273 11.1383 1.30968 11.1859V10.1806ZM2.31491 9.98065H1.30968V8.97541C1.84273 9.02303 2.2673 9.4476 2.31491 9.98065ZM0.104445 9.98065C0.152059 9.4476 0.576621 9.02303 1.10968 8.97541V9.98065H0.104445ZM1.10968 11.1859C0.576621 11.1383 0.152059 10.7137 0.104445 10.1806H1.10968V11.1859Z" fill="#221C35" stroke="#00E2D6" stroke-width="0.2"/>
</svg>
