<svg width="42" height="40" viewBox="0 0 42 40" fill="none" xmlns="http://www.w3.org/2000/svg">
<path fill-rule="evenodd" clip-rule="evenodd" d="M20.7407 0C9.30093 0 0 8.96875 0 20C0 31.0312 9.30093 40 20.7407 40C32.1806 40 41.4815 31.0312 41.4815 20C41.4815 8.96875 32.1806 0 20.7407 0Z" fill="#4BAE4F"/>
<path fill-rule="evenodd" clip-rule="evenodd" d="M30.7708 13.2578C31.2731 13.7422 31.2731 14.5391 30.7708 15.0234L18.6181 26.7422C18.3669 26.9844 18.0347 27.1094 17.7025 27.1094C17.3704 27.1094 17.0382 26.9844 16.787 26.7422L10.7106 20.8828C10.2083 20.3984 10.2083 19.6016 10.7106 19.1172C11.213 18.6328 12.0393 18.6328 12.5417 19.1172L17.7025 24.0938L28.9398 13.2578C29.4421 12.7656 30.2685 12.7656 30.7708 13.2578Z" fill="white"/>
</svg>
