<svg width="40" height="40" viewBox="0 0 40 40" fill="none" xmlns="http://www.w3.org/2000/svg">
<g clip-path="url(#clip0_2689_19076)">
<path d="M20.0781 0C9.09297 0 0 8.93672 0 19.9219C0 30.907 9.09297 40 20.0781 40C31.0633 40 40 30.907 40 19.9219C40 8.93672 31.0633 0 20.0781 0ZM29.9391 26.468C30.8531 27.382 30.8531 28.8688 29.9391 29.7836C29.032 30.6898 27.5453 30.7047 26.6234 29.7836L20.0781 23.2359L13.3758 29.7844C12.4617 30.6984 10.975 30.6984 10.0602 29.7844C9.14609 28.8703 9.14609 27.3836 10.0602 26.4688L16.607 19.9219L10.0602 13.375C9.14609 12.4602 9.14609 10.9734 10.0602 10.0594C10.975 9.14531 12.4617 9.14531 13.3758 10.0594L20.0781 16.6078L26.6234 10.0594C27.5359 9.14687 29.0227 9.14375 29.9391 10.0594C30.8531 10.9734 30.8531 12.4602 29.9391 13.375L23.3922 19.9219L29.9391 26.468Z" fill="#FC2F2F"/>
</g>
<defs>
<clipPath id="clip0_2689_19076">
<rect width="40" height="40" fill="white"/>
</clipPath>
</defs>
</svg>
